<svg xmlns="http://www.w3.org/2000/svg" width="2028" height="2028" viewBox="0 0 2028 2028" version="1.1"><path d="M 1136.115 475 C 1136.069 476.375, 1136.467 478.175, 1137 479 C 1137.862 480.333, 1137.960 480.333, 1137.885 479 C 1137.839 478.175, 1137.440 476.375, 1137 475 L 1136.199 472.500 1136.115 475 M 656.593 483.141 C 656.358 483.888, 641.268 569.325, 623.060 673 C 604.852 776.675, 589.704 862.737, 589.398 864.250 L 588.841 867 640.671 866.895 L 692.500 866.790 675.163 863.637 C 657.186 860.367, 655 859.407, 655 854.787 C 655 850.111, 657.565 850.316, 706.198 858.879 L 752.500 867.031 1190.995 866.765 L 1629.489 866.500 1647.704 763.043 C 1657.723 706.142, 1665.825 659.542, 1665.710 659.488 C 1665.527 659.403, 1303.017 595.556, 1180 573.943 C 1130.055 565.168, 665.308 483.282, 660.261 482.368 C 658.001 481.959, 656.892 482.193, 656.593 483.141 M 713.250 602.220 C 710.572 603.512, 710.407 605.716, 712.772 608.627 C 714.319 610.531, 731.970 613.828, 880.816 640.011 C 1026.810 665.693, 1047.429 669.108, 1049.566 667.965 C 1052.419 666.438, 1052.631 664.328, 1050.228 661.384 C 1048.686 659.496, 1030.652 656.127, 882.914 630.134 C 791.842 614.110, 716.917 601.030, 716.414 601.068 C 715.911 601.105, 714.487 601.624, 713.250 602.220 M 1114.750 673.080 C 1112.551 674.361, 1112.480 678.324, 1114.625 680.104 C 1115.855 681.124, 1249.844 705.699, 1255.561 705.953 C 1256.768 706.006, 1261.012 702.292, 1260.978 701.211 C 1260.966 700.820, 1260.178 699.520, 1259.228 698.322 C 1257.682 696.373, 1250.278 694.875, 1188.804 684.072 C 1151.022 677.433, 1119.297 672.014, 1118.304 672.030 C 1117.312 672.047, 1115.713 672.519, 1114.750 673.080 M 696.219 700.559 C 693.728 702.304, 693.287 706.163, 695.380 707.900 C 696.387 708.736, 820.595 731.298, 839.880 734.148 C 841.562 734.397, 842.869 733.689, 844.339 731.732 L 846.418 728.963 843.959 726.625 C 841.748 724.522, 834.444 723.054, 771.500 712.061 C 733 705.337, 700.811 699.649, 699.969 699.420 C 699.127 699.191, 697.440 699.704, 696.219 700.559 M 1307.200 707.200 C 1305.485 708.915, 1305.719 712.522, 1307.649 714.123 C 1308.609 714.921, 1342.633 721.358, 1389.200 729.554 C 1474.249 744.522, 1471.915 744.257, 1473.267 739.087 C 1474.454 734.549, 1473.152 734.242, 1391.747 719.854 C 1348.711 712.247, 1312.352 706.019, 1310.950 706.012 C 1309.548 706.005, 1307.860 706.540, 1307.200 707.200 M 900.115 737.581 C 895.103 743.952, 895.430 744.054, 954.183 754.421 C 1002.865 763.010, 1006.654 763.542, 1008.719 762.076 C 1009.939 761.209, 1010.951 759.799, 1010.969 758.941 C 1011.061 754.345, 1010.222 754.123, 957.940 744.912 C 930.198 740.024, 906.314 735.770, 904.865 735.459 C 902.809 735.016, 901.766 735.482, 900.115 737.581 M 1505.145 741.611 C 1502.703 743.322, 1502.315 747.186, 1504.411 748.926 C 1505.186 749.570, 1517.899 752.244, 1532.661 754.869 C 1557.504 759.287, 1559.665 759.525, 1561.719 758.071 C 1564.287 756.253, 1564.526 754.279, 1562.504 751.608 C 1561.360 750.097, 1556.183 748.851, 1536.786 745.417 C 1523.429 743.052, 1511.328 740.891, 1509.895 740.613 C 1508.420 740.327, 1506.361 740.760, 1505.145 741.611 M 1104.858 776.693 C 1102.270 779.702, 1102.016 781.705, 1103.998 783.498 C 1106.766 786.003, 1382.545 834.528, 1385.740 833.073 C 1388.240 831.933, 1388.708 828.510, 1386.718 825.905 C 1385.798 824.699, 1351.904 818.392, 1248 800.093 C 1172.375 786.774, 1109.580 775.654, 1108.456 775.382 C 1107.231 775.085, 1105.790 775.610, 1104.858 776.693 M 1455.131 839.026 C 1452.983 840.828, 1452.878 841.291, 1454.003 844.006 C 1454.685 845.653, 1455.575 847, 1455.981 847 C 1456.388 847, 1478.444 850.829, 1504.996 855.510 C 1554.771 864.284, 1554.476 864.255, 1557.235 860.500 C 1558.316 859.028, 1558.183 858.439, 1556.250 856.144 C 1554.746 854.359, 1548.041 852.936, 1508.500 846.012 C 1483.200 841.581, 1461.375 837.750, 1460 837.497 C 1458.428 837.209, 1456.621 837.776, 1455.131 839.026 M 1029.500 1015.168 C 1001.231 1017.992, 959.237 1033.387, 937.659 1048.837 C 933.171 1052.050, 926.575 1056.620, 923 1058.994 C 919.425 1061.367, 914.073 1065.355, 911.106 1067.855 C 908.139 1070.356, 904.670 1072.424, 903.397 1072.451 C 901.816 1072.484, 896.150 1077.205, 885.526 1087.340 C 862.875 1108.947, 852.926 1123.334, 837.679 1156.528 C 834.135 1164.244, 827.979 1177.057, 823.999 1185.001 C 820.019 1192.946, 815.043 1203.413, 812.940 1208.260 L 809.118 1217.074 808.932 1345.493 L 808.747 1473.911 812.059 1483.706 C 815.267 1493.190, 815.631 1493.753, 823.537 1501.500 C 832.082 1509.873, 845.770 1518.432, 855.654 1521.582 C 864.758 1524.484, 883.486 1529.084, 896.165 1531.533 C 903.130 1532.878, 912.670 1534.874, 917.364 1535.968 C 929.576 1538.816, 946.604 1540.878, 963.159 1541.514 C 971.047 1541.817, 990.501 1542.789, 1006.392 1543.675 C 1031.026 1545.048, 1040.309 1545.116, 1069.392 1544.139 C 1088.151 1543.509, 1109.575 1542.553, 1117 1542.014 C 1124.425 1541.475, 1137.700 1540.577, 1146.500 1540.018 C 1155.300 1539.460, 1164.300 1538.584, 1166.500 1538.072 C 1168.700 1537.561, 1175.675 1536.199, 1182 1535.046 C 1188.325 1533.893, 1198.450 1532.008, 1204.500 1530.856 C 1210.550 1529.703, 1219.775 1527.948, 1225 1526.954 C 1237.449 1524.587, 1241.683 1523.482, 1249.233 1520.632 C 1252.680 1519.332, 1258.447 1517.329, 1262.050 1516.182 C 1273.980 1512.383, 1289.904 1503.838, 1298.621 1496.558 C 1300.887 1494.665, 1303.925 1491.097, 1305.371 1488.630 L 1308 1484.144 1308 1355.746 C 1308 1231.644, 1307.502 1207.227, 1304.917 1204.550 C 1304.413 1204.027, 1304 1202.749, 1304 1201.708 C 1304 1200.668, 1303.076 1198.620, 1301.946 1197.158 C 1300.816 1195.696, 1297.067 1189.775, 1293.614 1184 C 1290.161 1178.225, 1285.722 1170.800, 1283.749 1167.500 C 1264.799 1135.800, 1262.049 1132.037, 1239.199 1106.549 C 1224.480 1090.131, 1213.099 1079.554, 1205.884 1075.588 C 1202.795 1073.889, 1197.170 1069.962, 1193.384 1066.860 C 1181.956 1057.497, 1165.520 1047.355, 1145.950 1037.590 C 1118.396 1023.842, 1094.760 1016.830, 1070 1015.058 C 1053.322 1013.864, 1042.256 1013.894, 1029.500 1015.168 M 1037 1065.096 C 1025.609 1066.276, 1016.028 1068.443, 1001.852 1073.048 C 986.207 1078.130, 974.770 1083.596, 964.737 1090.784 C 960.207 1094.031, 953.125 1098.950, 949 1101.716 C 934.109 1111.703, 916.377 1128.448, 901.576 1146.500 C 892.455 1157.625, 878 1176.602, 878 1177.452 C 878 1177.753, 957.459 1178, 1054.576 1178 L 1231.152 1178 1222.902 1167.250 C 1205.878 1145.066, 1190.916 1129.104, 1173.876 1114.944 C 1154.304 1098.681, 1131.268 1084.387, 1112 1076.552 C 1088.651 1067.057, 1060.133 1062.701, 1037 1065.096 M 1050.560 1237.050 C 1048.942 1237.534, 1047.233 1238.620, 1046.760 1239.464 C 1046.287 1240.309, 1045.401 1241, 1044.790 1241 C 1043.325 1241, 1030.040 1254.169, 1030.017 1255.643 C 1030.008 1256.272, 1029.328 1257.044, 1028.506 1257.359 C 1027.684 1257.675, 1026.111 1259.410, 1025.009 1261.216 C 1023.118 1264.319, 1023.007 1266.253, 1023.004 1296.224 L 1023 1327.949 1026.031 1329.516 C 1028.625 1330.858, 1033.366 1331.042, 1058.879 1330.792 C 1082.349 1330.562, 1089.048 1330.208, 1090.348 1329.128 C 1091.822 1327.903, 1092 1324.264, 1092 1295.418 L 1092 1263.081 1089.250 1259.999 C 1084.937 1255.166, 1073.566 1243.759, 1070.297 1240.986 C 1064.559 1236.120, 1058.030 1234.818, 1050.560 1237.050 M 1052 1243.315 C 1048.662 1244.373, 1031 1260.910, 1031 1262.976 C 1031 1263.461, 1030.293 1264.564, 1029.429 1265.429 C 1028 1266.857, 1030.497 1267, 1056.897 1267 C 1084.130 1267, 1085.898 1266.891, 1085.302 1265.250 C 1083.913 1261.422, 1068.871 1246.485, 1063.799 1243.897 C 1059.671 1241.792, 1057.187 1241.669, 1052 1243.315 M 972 1334.921 C 972 1335.427, 970.603 1336.148, 968.896 1336.523 C 963.723 1337.659, 957 1341.009, 957 1342.450 C 957 1343.196, 955.422 1345.087, 953.494 1346.653 C 948.648 1350.587, 945.571 1359.407, 946.361 1367.093 C 947.071 1373.997, 950.066 1381.201, 953.448 1384.142 C 954.852 1385.362, 956 1386.922, 956 1387.608 C 956 1388.294, 957.082 1389.706, 958.405 1390.746 C 959.727 1391.786, 961.657 1394.032, 962.694 1395.737 C 964.677 1398.998, 969.954 1405.661, 973.750 1409.698 C 974.987 1411.014, 976 1412.408, 976 1412.796 C 976 1413.184, 977.800 1415.470, 980 1417.877 C 982.200 1420.284, 984 1422.469, 984 1422.732 C 984 1423.315, 989.617 1430.550, 992.740 1433.990 C 993.983 1435.359, 995 1436.784, 995 1437.156 C 995 1437.528, 996.800 1439.763, 999 1442.122 C 1001.200 1444.481, 1003.008 1446.881, 1003.017 1447.456 C 1003.026 1448.030, 1004.826 1450.267, 1007.017 1452.426 C 1009.208 1454.585, 1011 1456.962, 1011 1457.707 C 1011 1458.453, 1011.674 1459.321, 1012.497 1459.637 C 1013.321 1459.953, 1015.421 1462.414, 1017.166 1465.106 C 1018.910 1467.798, 1020.699 1470, 1021.143 1470 C 1021.586 1470, 1022.637 1471.332, 1023.479 1472.959 C 1025.597 1477.055, 1034.830 1486.405, 1038.700 1488.373 C 1040.460 1489.268, 1042.260 1490.575, 1042.700 1491.279 C 1043.947 1493.272, 1051.655 1496.314, 1055.202 1496.213 C 1058.891 1496.108, 1066.124 1493.158, 1067.300 1491.279 C 1067.740 1490.575, 1069.540 1489.267, 1071.300 1488.372 C 1075.024 1486.477, 1084.548 1476.774, 1086.624 1472.760 C 1087.409 1471.242, 1088.414 1470, 1088.857 1470 C 1089.301 1470, 1091.090 1467.798, 1092.834 1465.106 C 1094.579 1462.414, 1096.679 1459.953, 1097.503 1459.637 C 1098.326 1459.321, 1099 1458.453, 1099 1457.707 C 1099 1456.962, 1100.792 1454.585, 1102.983 1452.426 C 1105.174 1450.267, 1106.974 1448.007, 1106.983 1447.403 C 1106.992 1446.800, 1108.463 1444.775, 1110.250 1442.903 C 1112.037 1441.031, 1114.828 1437.545, 1116.451 1435.156 C 1118.074 1432.767, 1120.886 1429.192, 1122.701 1427.211 C 1124.515 1425.230, 1126 1423.304, 1126 1422.931 C 1126 1422.558, 1127.800 1420.284, 1130 1417.877 C 1132.200 1415.470, 1134 1413.184, 1134 1412.796 C 1134 1412.408, 1135.013 1411.014, 1136.250 1409.698 C 1140.046 1405.661, 1145.323 1398.998, 1147.306 1395.737 C 1148.343 1394.032, 1150.273 1391.786, 1151.595 1390.746 C 1152.918 1389.706, 1154 1388.298, 1154 1387.617 C 1154 1386.937, 1155.300 1385.050, 1156.888 1383.426 C 1166.083 1374.021, 1165.883 1354.474, 1156.514 1346.751 C 1154.581 1345.158, 1153 1343.233, 1153 1342.474 C 1153 1341.013, 1146.311 1337.667, 1141.104 1336.523 C 1139.397 1336.148, 1138 1335.427, 1138 1334.921 C 1138 1334.414, 1135.300 1334, 1132 1334 C 1128.700 1334, 1126 1334.378, 1126 1334.839 C 1126 1335.301, 1124.884 1336.188, 1123.519 1336.809 C 1119.464 1338.657, 1107 1350.478, 1107 1352.476 C 1107 1353.043, 1105.634 1354.796, 1103.965 1356.371 C 1102.295 1357.947, 1100.258 1360.533, 1099.439 1362.118 C 1098.619 1363.703, 1097.529 1365, 1097.016 1365 C 1096.504 1365, 1094.892 1367.035, 1093.434 1369.523 C 1091.976 1372.010, 1089.932 1374.501, 1088.892 1375.058 C 1087.851 1375.615, 1087 1376.661, 1087 1377.382 C 1087 1378.103, 1085.425 1380.315, 1083.500 1382.297 C 1081.575 1384.279, 1080 1386.319, 1080 1386.830 C 1080 1387.341, 1078.200 1389.614, 1076 1391.881 C 1073.800 1394.148, 1072 1396.364, 1072 1396.806 C 1072 1397.248, 1070.425 1399.329, 1068.500 1401.430 C 1066.575 1403.532, 1065 1405.467, 1065 1405.731 C 1065 1405.995, 1063.987 1407.462, 1062.750 1408.992 C 1061.513 1410.521, 1059.173 1413.412, 1057.551 1415.416 C 1054.842 1418.763, 1054.517 1418.909, 1053.551 1417.204 C 1052.973 1416.183, 1051.944 1414.707, 1051.265 1413.924 C 1048.389 1410.608, 1045 1406.176, 1045 1405.731 C 1045 1405.467, 1043.425 1403.532, 1041.500 1401.430 C 1039.575 1399.329, 1038 1397.248, 1038 1396.806 C 1038 1396.364, 1036.200 1394.148, 1034 1391.881 C 1031.800 1389.614, 1030 1387.420, 1030 1387.005 C 1030 1386.591, 1028.425 1384.532, 1026.500 1382.430 C 1024.575 1380.329, 1023 1378.038, 1023 1377.340 C 1023 1376.642, 1022.149 1375.615, 1021.108 1375.058 C 1020.068 1374.501, 1018.024 1372.010, 1016.566 1369.523 C 1015.108 1367.035, 1013.496 1365, 1012.984 1365 C 1012.471 1365, 1011.381 1363.703, 1010.561 1362.118 C 1009.742 1360.533, 1007.705 1357.947, 1006.035 1356.371 C 1004.366 1354.796, 1003 1353.043, 1003 1352.476 C 1003 1350.465, 990.486 1338.698, 986.250 1336.726 C 985.013 1336.150, 984 1335.301, 984 1334.839 C 984 1334.378, 981.300 1334, 978 1334 C 974.700 1334, 972 1334.414, 972 1334.921 M 1320 1372.500 C 1320 1372.775, 1320.225 1373, 1320.500 1373 C 1320.775 1373, 1321 1372.775, 1321 1372.500 C 1321 1372.225, 1320.775 1372, 1320.500 1372 C 1320.225 1372, 1320 1372.225, 1320 1372.500" stroke="none" fill="#8b9bb4" fill-rule="evenodd"/><path d="M 972 1334.921 C 972 1335.427, 970.603 1336.148, 968.896 1336.523 C 963.121 1337.791, 956.999 1341.024, 957.015 1342.797 C 957.025 1343.907, 957.287 1344.098, 957.766 1343.345 C 958.638 1341.975, 969.082 1338.330, 974.722 1337.428 C 977.418 1336.997, 979.651 1337.285, 981.656 1338.322 C 984.930 1340.015, 996 1350.064, 996 1351.344 C 996 1351.789, 997.350 1353.504, 999 1355.154 C 1000.650 1356.804, 1002 1358.956, 1002 1359.936 C 1002 1360.917, 1003.570 1363.245, 1005.489 1365.110 C 1007.408 1366.974, 1008.983 1368.987, 1008.989 1369.583 C 1008.995 1370.179, 1010.481 1372.204, 1012.292 1374.083 C 1014.102 1375.963, 1016.690 1379.184, 1018.042 1381.243 C 1019.394 1383.302, 1020.826 1384.989, 1021.224 1384.993 C 1021.623 1384.997, 1022.590 1386.237, 1023.374 1387.750 C 1024.157 1389.263, 1025.856 1391.648, 1027.149 1393.052 C 1028.442 1394.456, 1030.826 1397.381, 1032.447 1399.552 C 1034.068 1401.723, 1035.643 1403.725, 1035.947 1404 C 1036.988 1404.941, 1043 1412.882, 1043 1413.316 C 1043 1413.554, 1044.575 1415.468, 1046.500 1417.570 C 1048.425 1419.671, 1050.014 1421.865, 1050.031 1422.445 C 1050.049 1423.025, 1051.174 1424.309, 1052.531 1425.297 C 1054.907 1427.026, 1055.093 1427.026, 1057.469 1425.297 C 1058.826 1424.309, 1059.951 1423.025, 1059.969 1422.445 C 1059.986 1421.865, 1061.575 1419.671, 1063.500 1417.570 C 1065.425 1415.468, 1067 1413.554, 1067 1413.316 C 1067 1412.828, 1072.545 1405.640, 1075.316 1402.535 C 1076.315 1401.416, 1078.039 1399.037, 1079.148 1397.250 C 1080.256 1395.463, 1081.487 1394, 1081.882 1394 C 1082.278 1394, 1083.881 1391.975, 1085.446 1389.500 C 1087.010 1387.025, 1088.562 1384.997, 1088.895 1384.993 C 1089.228 1384.989, 1090.606 1383.302, 1091.958 1381.243 C 1093.310 1379.184, 1095.898 1375.963, 1097.708 1374.083 C 1099.519 1372.204, 1101.005 1370.179, 1101.011 1369.583 C 1101.017 1368.988, 1102.592 1366.974, 1104.511 1365.110 C 1106.430 1363.245, 1108 1360.917, 1108 1359.936 C 1108 1358.956, 1109.350 1356.804, 1111 1355.154 C 1112.650 1353.504, 1114 1351.747, 1114 1351.250 C 1114 1349.914, 1124.837 1340.135, 1128.307 1338.341 C 1130.347 1337.286, 1132.569 1336.995, 1135.278 1337.428 C 1140.918 1338.330, 1151.362 1341.975, 1152.234 1343.345 C 1152.713 1344.098, 1152.975 1343.907, 1152.985 1342.797 C 1153.001 1341.024, 1146.879 1337.791, 1141.104 1336.523 C 1139.397 1336.148, 1138 1335.427, 1138 1334.921 C 1138 1334.414, 1135.300 1334, 1132 1334 C 1128.700 1334, 1126 1334.378, 1126 1334.839 C 1126 1335.301, 1124.884 1336.188, 1123.519 1336.809 C 1119.464 1338.657, 1107 1350.478, 1107 1352.476 C 1107 1353.043, 1105.634 1354.796, 1103.965 1356.371 C 1102.295 1357.947, 1100.258 1360.533, 1099.439 1362.118 C 1098.619 1363.703, 1097.529 1365, 1097.016 1365 C 1096.504 1365, 1094.892 1367.035, 1093.434 1369.523 C 1091.976 1372.010, 1089.932 1374.501, 1088.892 1375.058 C 1087.851 1375.615, 1087 1376.661, 1087 1377.382 C 1087 1378.103, 1085.425 1380.315, 1083.500 1382.297 C 1081.575 1384.279, 1080 1386.319, 1080 1386.830 C 1080 1387.341, 1078.200 1389.614, 1076 1391.881 C 1073.800 1394.148, 1072 1396.364, 1072 1396.806 C 1072 1397.248, 1070.425 1399.329, 1068.500 1401.430 C 1066.575 1403.532, 1065 1405.467, 1065 1405.731 C 1065 1405.995, 1063.987 1407.462, 1062.750 1408.992 C 1061.513 1410.521, 1059.173 1413.412, 1057.551 1415.416 C 1054.842 1418.763, 1054.517 1418.909, 1053.551 1417.204 C 1052.973 1416.183, 1051.944 1414.707, 1051.265 1413.924 C 1048.389 1410.608, 1045 1406.176, 1045 1405.731 C 1045 1405.467, 1043.425 1403.532, 1041.500 1401.430 C 1039.575 1399.329, 1038 1397.248, 1038 1396.806 C 1038 1396.364, 1036.200 1394.148, 1034 1391.881 C 1031.800 1389.614, 1030 1387.420, 1030 1387.005 C 1030 1386.591, 1028.425 1384.532, 1026.500 1382.430 C 1024.575 1380.329, 1023 1378.038, 1023 1377.340 C 1023 1376.642, 1022.149 1375.615, 1021.108 1375.058 C 1020.068 1374.501, 1018.024 1372.010, 1016.566 1369.523 C 1015.108 1367.035, 1013.496 1365, 1012.984 1365 C 1012.471 1365, 1011.381 1363.703, 1010.561 1362.118 C 1009.742 1360.533, 1007.705 1357.947, 1006.035 1356.371 C 1004.366 1354.796, 1003 1353.043, 1003 1352.476 C 1003 1350.465, 990.486 1338.698, 986.250 1336.726 C 985.013 1336.150, 984 1335.301, 984 1334.839 C 984 1334.378, 981.300 1334, 978 1334 C 974.700 1334, 972 1334.414, 972 1334.921" stroke="none" fill="#2ce8f5" fill-rule="evenodd"/><path d="M 972.500 1337.714 C 966.640 1339.128, 958.713 1342.258, 956.742 1343.937 C 955.509 1344.988, 953.484 1346.670, 952.243 1347.674 C 948.657 1350.575, 945.675 1360.421, 946.361 1367.093 C 947.071 1373.997, 950.066 1381.201, 953.448 1384.142 C 954.852 1385.362, 956 1386.922, 956 1387.608 C 956 1388.294, 957.082 1389.706, 958.405 1390.746 C 959.727 1391.786, 961.657 1394.032, 962.694 1395.737 C 964.677 1398.998, 969.954 1405.661, 973.750 1409.698 C 974.987 1411.014, 976 1412.408, 976 1412.796 C 976 1413.184, 977.800 1415.470, 980 1417.877 C 982.200 1420.284, 984 1422.469, 984 1422.732 C 984 1423.315, 989.617 1430.550, 992.740 1433.990 C 993.983 1435.359, 995 1436.784, 995 1437.156 C 995 1437.528, 996.800 1439.763, 999 1442.122 C 1001.200 1444.481, 1003.008 1446.881, 1003.017 1447.456 C 1003.026 1448.030, 1004.826 1450.267, 1007.017 1452.426 C 1009.208 1454.585, 1011 1456.962, 1011 1457.707 C 1011 1458.453, 1011.674 1459.321, 1012.497 1459.637 C 1013.321 1459.953, 1015.421 1462.414, 1017.166 1465.106 C 1018.910 1467.798, 1020.699 1470, 1021.143 1470 C 1021.586 1470, 1022.637 1471.332, 1023.479 1472.959 C 1025.597 1477.055, 1034.830 1486.405, 1038.700 1488.373 C 1040.460 1489.268, 1042.260 1490.575, 1042.700 1491.279 C 1043.947 1493.272, 1051.655 1496.314, 1055.202 1496.213 C 1058.891 1496.108, 1066.124 1493.158, 1067.300 1491.279 C 1067.740 1490.575, 1069.540 1489.267, 1071.300 1488.372 C 1075.024 1486.477, 1084.548 1476.774, 1086.624 1472.760 C 1087.409 1471.242, 1088.414 1470, 1088.857 1470 C 1089.301 1470, 1091.090 1467.798, 1092.834 1465.106 C 1094.579 1462.414, 1096.679 1459.953, 1097.503 1459.637 C 1098.326 1459.321, 1099 1458.453, 1099 1457.707 C 1099 1456.962, 1100.792 1454.585, 1102.983 1452.426 C 1105.174 1450.267, 1106.974 1448.007, 1106.983 1447.403 C 1106.992 1446.800, 1108.463 1444.775, 1110.250 1442.903 C 1112.037 1441.031, 1114.828 1437.545, 1116.451 1435.156 C 1118.074 1432.767, 1120.886 1429.192, 1122.701 1427.211 C 1124.515 1425.230, 1126 1423.304, 1126 1422.931 C 1126 1422.558, 1127.800 1420.284, 1130 1417.877 C 1132.200 1415.470, 1134 1413.184, 1134 1412.796 C 1134 1412.408, 1135.013 1411.014, 1136.250 1409.698 C 1140.046 1405.661, 1145.323 1398.998, 1147.306 1395.737 C 1148.343 1394.032, 1150.273 1391.786, 1151.595 1390.746 C 1152.918 1389.706, 1154 1388.298, 1154 1387.617 C 1154 1386.937, 1155.300 1385.050, 1156.888 1383.426 C 1163.355 1376.811, 1165.521 1365.215, 1162.103 1355.500 C 1160.943 1352.200, 1159.248 1348.948, 1158.337 1348.273 C 1157.426 1347.598, 1155.417 1345.920, 1153.873 1344.545 C 1150.924 1341.917, 1142.006 1338.504, 1135.278 1337.428 C 1132.569 1336.995, 1130.347 1337.286, 1128.307 1338.341 C 1124.837 1340.135, 1114 1349.914, 1114 1351.250 C 1114 1351.747, 1112.650 1353.504, 1111 1355.154 C 1109.350 1356.804, 1108 1358.956, 1108 1359.936 C 1108 1360.917, 1106.430 1363.245, 1104.511 1365.110 C 1102.592 1366.974, 1101.017 1368.988, 1101.011 1369.583 C 1101.005 1370.179, 1099.519 1372.204, 1097.708 1374.083 C 1095.898 1375.963, 1093.310 1379.184, 1091.958 1381.243 C 1090.606 1383.302, 1089.228 1384.989, 1088.895 1384.993 C 1088.562 1384.997, 1087.010 1387.025, 1085.446 1389.500 C 1083.881 1391.975, 1082.278 1394, 1081.882 1394 C 1081.487 1394, 1080.256 1395.463, 1079.148 1397.250 C 1078.039 1399.037, 1076.315 1401.416, 1075.316 1402.535 C 1072.545 1405.640, 1067 1412.828, 1067 1413.316 C 1067 1413.554, 1065.425 1415.468, 1063.500 1417.570 C 1061.575 1419.671, 1059.986 1421.865, 1059.969 1422.445 C 1059.951 1423.025, 1058.826 1424.309, 1057.469 1425.297 C 1055.093 1427.026, 1054.907 1427.026, 1052.531 1425.297 C 1051.174 1424.309, 1050.049 1423.025, 1050.031 1422.445 C 1050.014 1421.865, 1048.425 1419.671, 1046.500 1417.570 C 1044.575 1415.468, 1043 1413.554, 1043 1413.316 C 1043 1412.882, 1036.988 1404.941, 1035.947 1404 C 1035.643 1403.725, 1034.068 1401.723, 1032.447 1399.552 C 1030.826 1397.381, 1028.442 1394.456, 1027.149 1393.052 C 1025.856 1391.648, 1024.157 1389.263, 1023.374 1387.750 C 1022.590 1386.237, 1021.623 1384.997, 1021.224 1384.993 C 1020.826 1384.989, 1019.394 1383.302, 1018.042 1381.243 C 1016.690 1379.184, 1014.102 1375.963, 1012.292 1374.083 C 1010.481 1372.204, 1008.995 1370.179, 1008.989 1369.583 C 1008.983 1368.987, 1007.408 1366.974, 1005.489 1365.110 C 1003.570 1363.245, 1002 1360.917, 1002 1359.936 C 1002 1358.956, 1000.650 1356.804, 999 1355.154 C 997.350 1353.504, 996 1351.800, 996 1351.368 C 996 1350.202, 986.266 1341.133, 982.642 1338.924 C 979.597 1337.067, 976.645 1336.715, 972.500 1337.714" stroke="none" fill="#0095e9" fill-rule="evenodd"/><path d="M 1051.250 1288.718 C 1050.326 1289.050, 1050 1293.034, 1050 1303.976 C 1050 1316.600, 1050.235 1318.876, 1051.593 1319.397 C 1052.657 1319.805, 1053.360 1319.339, 1053.712 1317.993 C 1054.427 1315.261, 1058.924 1314.176, 1060.516 1316.353 C 1061.781 1318.083, 1065 1318.631, 1065 1317.117 C 1065 1316.631, 1065.945 1315.986, 1067.101 1315.684 C 1070.320 1314.842, 1068.293 1312.691, 1064.917 1313.367 C 1063.356 1313.679, 1061.782 1313.456, 1061.421 1312.872 C 1061.059 1312.287, 1059.242 1311.986, 1057.382 1312.204 L 1054 1312.598 1054 1300.858 C 1054 1289.242, 1053.684 1287.845, 1051.250 1288.718" stroke="none" fill="#fdd658" fill-rule="evenodd"/><path d="M 1050.560 1237.050 C 1048.942 1237.534, 1047.233 1238.620, 1046.760 1239.464 C 1046.287 1240.309, 1045.401 1241, 1044.790 1241 C 1043.325 1241, 1030.040 1254.169, 1030.017 1255.643 C 1030.008 1256.272, 1029.328 1257.044, 1028.506 1257.359 C 1027.684 1257.675, 1026.111 1259.410, 1025.009 1261.216 C 1023.118 1264.319, 1023.007 1266.253, 1023.004 1296.224 L 1023 1327.949 1026.031 1329.516 C 1028.625 1330.858, 1033.366 1331.042, 1058.879 1330.792 C 1082.349 1330.562, 1089.048 1330.208, 1090.348 1329.128 C 1091.822 1327.903, 1092 1324.264, 1092 1295.418 L 1092 1263.081 1089.250 1259.999 C 1084.937 1255.166, 1073.566 1243.759, 1070.297 1240.986 C 1064.559 1236.120, 1058.030 1234.818, 1050.560 1237.050 M 1052 1243.315 C 1048.662 1244.373, 1031 1260.910, 1031 1262.976 C 1031 1263.461, 1030.293 1264.564, 1029.429 1265.429 C 1028 1266.857, 1030.497 1267, 1056.897 1267 C 1084.130 1267, 1085.898 1266.891, 1085.302 1265.250 C 1083.913 1261.422, 1068.871 1246.485, 1063.799 1243.897 C 1059.671 1241.792, 1057.187 1241.669, 1052 1243.315 M 1051.250 1288.718 C 1050.326 1289.050, 1050 1293.034, 1050 1303.976 C 1050 1316.600, 1050.235 1318.876, 1051.593 1319.397 C 1052.657 1319.805, 1053.360 1319.339, 1053.712 1317.993 C 1054.427 1315.261, 1058.924 1314.176, 1060.516 1316.353 C 1061.781 1318.083, 1065 1318.631, 1065 1317.117 C 1065 1316.631, 1065.945 1315.986, 1067.101 1315.684 C 1070.320 1314.842, 1068.293 1312.691, 1064.917 1313.367 C 1063.356 1313.679, 1061.782 1313.456, 1061.421 1312.872 C 1061.059 1312.287, 1059.242 1311.986, 1057.382 1312.204 L 1054 1312.598 1054 1300.858 C 1054 1289.242, 1053.684 1287.845, 1051.250 1288.718" stroke="none" fill="#f77622" fill-rule="evenodd"/><path d="M 296 1240.500 L 296 1673 318 1673 L 340 1673 340 1270 L 340 867 398.921 867 L 457.841 867 458.395 864.250 C 459.605 858.236, 468 809.960, 468 809.012 C 468 808.337, 439.364 808, 382 808 L 296 808 296 1240.500 M 1639.498 810.250 C 1639.200 811.487, 1636.801 824.763, 1634.166 839.750 L 1629.374 867 1643.187 867 L 1657 867 1657 837.500 L 1657 808 1648.519 808 C 1640.551 808, 1640.005 808.136, 1639.498 810.250" stroke="none" fill="#d87644" fill-rule="evenodd"/><path d="M 340 1299.500 L 340 1732 1020.500 1732 L 1701 1732 1701 1299.500 L 1701 867 1020.500 867 L 340 867 340 1299.500 M 1029.500 1015.168 C 1001.231 1017.992, 959.237 1033.387, 937.659 1048.837 C 933.171 1052.050, 926.575 1056.620, 923 1058.994 C 919.425 1061.367, 914.073 1065.355, 911.106 1067.855 C 908.139 1070.356, 904.670 1072.424, 903.397 1072.451 C 901.816 1072.484, 896.150 1077.205, 885.526 1087.340 C 862.875 1108.947, 852.926 1123.334, 837.679 1156.528 C 834.135 1164.244, 827.979 1177.057, 823.999 1185.001 C 820.019 1192.946, 815.043 1203.413, 812.940 1208.260 L 809.118 1217.074 808.932 1345.493 L 808.747 1473.911 812.059 1483.706 C 815.267 1493.190, 815.631 1493.753, 823.537 1501.500 C 832.082 1509.873, 845.770 1518.432, 855.654 1521.582 C 864.758 1524.484, 883.486 1529.084, 896.165 1531.533 C 903.130 1532.878, 912.670 1534.874, 917.364 1535.968 C 929.576 1538.816, 946.604 1540.878, 963.159 1541.514 C 971.047 1541.817, 990.501 1542.789, 1006.392 1543.675 C 1031.026 1545.048, 1040.309 1545.116, 1069.392 1544.139 C 1088.151 1543.509, 1109.575 1542.553, 1117 1542.014 C 1124.425 1541.475, 1137.700 1540.577, 1146.500 1540.018 C 1155.300 1539.460, 1164.300 1538.584, 1166.500 1538.072 C 1168.700 1537.561, 1175.675 1536.199, 1182 1535.046 C 1188.325 1533.893, 1198.450 1532.008, 1204.500 1530.856 C 1210.550 1529.703, 1219.775 1527.948, 1225 1526.954 C 1237.449 1524.587, 1241.683 1523.482, 1249.233 1520.632 C 1252.680 1519.332, 1258.447 1517.329, 1262.050 1516.182 C 1273.980 1512.383, 1289.904 1503.838, 1298.621 1496.558 C 1300.887 1494.665, 1303.925 1491.097, 1305.371 1488.630 L 1308 1484.144 1308 1355.746 C 1308 1231.644, 1307.502 1207.227, 1304.917 1204.550 C 1304.413 1204.027, 1304 1202.749, 1304 1201.708 C 1304 1200.668, 1303.076 1198.620, 1301.946 1197.158 C 1300.816 1195.696, 1297.067 1189.775, 1293.614 1184 C 1290.161 1178.225, 1285.722 1170.800, 1283.749 1167.500 C 1264.799 1135.800, 1262.049 1132.037, 1239.199 1106.549 C 1224.480 1090.131, 1213.099 1079.554, 1205.884 1075.588 C 1202.795 1073.889, 1197.170 1069.962, 1193.384 1066.860 C 1181.956 1057.497, 1165.520 1047.355, 1145.950 1037.590 C 1118.396 1023.842, 1094.760 1016.830, 1070 1015.058 C 1053.322 1013.864, 1042.256 1013.894, 1029.500 1015.168 M 1037 1065.096 C 1025.609 1066.276, 1016.028 1068.443, 1001.852 1073.048 C 986.207 1078.130, 974.770 1083.596, 964.737 1090.784 C 960.207 1094.031, 953.125 1098.950, 949 1101.716 C 934.109 1111.703, 916.377 1128.448, 901.576 1146.500 C 892.455 1157.625, 878 1176.602, 878 1177.452 C 878 1177.753, 957.459 1178, 1054.576 1178 L 1231.152 1178 1222.902 1167.250 C 1205.878 1145.066, 1190.916 1129.104, 1173.876 1114.944 C 1154.304 1098.681, 1131.268 1084.387, 1112 1076.552 C 1088.651 1067.057, 1060.133 1062.701, 1037 1065.096 M 1320 1372.500 C 1320 1372.775, 1320.225 1373, 1320.500 1373 C 1320.775 1373, 1321 1372.775, 1321 1372.500 C 1321 1372.225, 1320.775 1372, 1320.500 1372 C 1320.225 1372, 1320 1372.225, 1320 1372.500" stroke="none" fill="#be4a2f" fill-rule="evenodd"/><path d="M 588.250 568.220 C 585.572 569.512, 585.407 571.715, 587.772 574.628 C 589.236 576.431, 593.215 577.404, 613.806 580.989 C 627.175 583.316, 638.270 585.058, 638.463 584.860 C 638.655 584.662, 639.118 582.448, 639.492 579.939 L 640.170 575.379 615.835 571.165 C 602.451 568.847, 591.275 566.992, 591 567.043 C 590.725 567.094, 589.487 567.624, 588.250 568.220 M 713.250 602.220 C 710.572 603.512, 710.407 605.716, 712.772 608.627 C 714.319 610.531, 731.970 613.828, 880.816 640.011 C 1026.810 665.693, 1047.429 669.108, 1049.566 667.965 C 1052.419 666.438, 1052.631 664.328, 1050.228 661.384 C 1048.686 659.496, 1030.652 656.127, 882.914 630.134 C 791.842 614.110, 716.917 601.030, 716.414 601.068 C 715.911 601.105, 714.487 601.624, 713.250 602.220 M 571.184 666.584 C 568.718 668.311, 568.300 672.174, 570.391 673.910 C 572.562 675.711, 620.375 683.888, 621.114 682.584 C 621.452 681.988, 621.986 679.814, 622.301 677.753 C 622.801 674.481, 622.596 673.945, 620.687 673.520 C 619.484 673.253, 609.275 671.444, 598 669.500 C 586.725 667.556, 576.570 665.761, 575.434 665.510 C 574.297 665.259, 572.385 665.743, 571.184 666.584 M 1114.750 673.080 C 1112.551 674.361, 1112.480 678.324, 1114.625 680.104 C 1115.855 681.124, 1249.844 705.699, 1255.561 705.953 C 1256.768 706.006, 1261.012 702.292, 1260.978 701.211 C 1260.966 700.820, 1260.178 699.520, 1259.228 698.322 C 1257.682 696.373, 1250.278 694.875, 1188.804 684.072 C 1151.022 677.433, 1119.297 672.014, 1118.304 672.030 C 1117.312 672.047, 1115.713 672.519, 1114.750 673.080 M 696.219 700.559 C 693.728 702.304, 693.287 706.163, 695.380 707.900 C 696.387 708.736, 820.595 731.298, 839.880 734.148 C 841.562 734.397, 842.869 733.689, 844.339 731.732 L 846.418 728.963 843.959 726.625 C 841.748 724.522, 834.444 723.054, 771.500 712.061 C 733 705.337, 700.811 699.649, 699.969 699.420 C 699.127 699.191, 697.440 699.704, 696.219 700.559 M 1307.200 707.200 C 1305.485 708.915, 1305.719 712.522, 1307.649 714.123 C 1308.609 714.921, 1342.633 721.358, 1389.200 729.554 C 1474.249 744.522, 1471.915 744.257, 1473.267 739.087 C 1474.454 734.549, 1473.152 734.242, 1391.747 719.854 C 1348.711 712.247, 1312.352 706.019, 1310.950 706.012 C 1309.548 706.005, 1307.860 706.540, 1307.200 707.200 M 900.115 737.581 C 895.103 743.952, 895.430 744.054, 954.183 754.421 C 1002.865 763.010, 1006.654 763.542, 1008.719 762.076 C 1009.939 761.209, 1010.951 759.799, 1010.969 758.941 C 1011.061 754.345, 1010.222 754.123, 957.940 744.912 C 930.198 740.024, 906.314 735.770, 904.865 735.459 C 902.809 735.016, 901.766 735.482, 900.115 737.581 M 1505.145 741.611 C 1502.703 743.322, 1502.315 747.186, 1504.411 748.926 C 1505.186 749.570, 1517.899 752.244, 1532.661 754.869 C 1557.504 759.287, 1559.665 759.525, 1561.719 758.071 C 1564.287 756.253, 1564.526 754.279, 1562.504 751.608 C 1561.360 750.097, 1556.183 748.851, 1536.786 745.417 C 1523.429 743.052, 1511.328 740.891, 1509.895 740.613 C 1508.420 740.327, 1506.361 740.760, 1505.145 741.611 M 1104.858 776.693 C 1102.270 779.702, 1102.016 781.705, 1103.998 783.498 C 1106.766 786.003, 1382.545 834.528, 1385.740 833.073 C 1388.240 831.933, 1388.708 828.510, 1386.718 825.905 C 1385.798 824.699, 1351.904 818.392, 1248 800.093 C 1172.375 786.774, 1109.580 775.654, 1108.456 775.382 C 1107.231 775.085, 1105.790 775.610, 1104.858 776.693 M 531.750 818.080 C 530.788 818.641, 530 819.927, 530 820.939 C 530 825.806, 532.114 826.503, 563.358 831.930 C 579.780 834.783, 593.432 836.901, 593.697 836.636 C 594.291 836.042, 596.177 827.815, 595.785 827.529 C 595.262 827.150, 536.472 817, 534.974 817.030 C 534.164 817.047, 532.712 817.519, 531.750 818.080 M 1455.131 839.026 C 1452.983 840.828, 1452.878 841.291, 1454.003 844.006 C 1454.685 845.653, 1455.575 847, 1455.981 847 C 1456.388 847, 1478.444 850.829, 1504.996 855.510 C 1554.771 864.284, 1554.476 864.255, 1557.235 860.500 C 1558.316 859.028, 1558.183 858.439, 1556.250 856.144 C 1554.746 854.359, 1548.041 852.936, 1508.500 846.012 C 1483.200 841.581, 1461.375 837.750, 1460 837.497 C 1458.428 837.209, 1456.621 837.776, 1455.131 839.026 M 656.750 852.080 C 655.788 852.641, 655 853.927, 655 854.939 C 655 859.489, 657.765 860.616, 677 863.909 C 695.099 867.008, 696.085 867.071, 722.500 866.788 L 749.500 866.500 705 858.714 C 680.525 854.431, 660.050 850.957, 659.500 850.994 C 658.950 851.031, 657.712 851.519, 656.750 852.080" stroke="none" fill="#3f2832" fill-rule="evenodd"/><path d="M 1136.115 475 C 1136.069 476.375, 1136.467 478.175, 1137 479 C 1137.862 480.333, 1137.960 480.333, 1137.885 479 C 1137.839 478.175, 1137.440 476.375, 1137 475 L 1136.199 472.500 1136.115 475 M 656.593 483.141 C 656.358 483.888, 641.268 569.325, 623.060 673 C 604.852 776.675, 589.704 862.737, 589.398 864.250 L 588.841 867 640.671 866.895 L 692.500 866.790 675.163 863.637 C 657.186 860.367, 655 859.407, 655 854.787 C 655 850.111, 657.565 850.316, 706.198 858.879 L 752.500 867.031 1190.995 866.765 L 1629.489 866.500 1647.704 763.043 C 1657.723 706.142, 1665.825 659.542, 1665.710 659.488 C 1665.527 659.403, 1303.017 595.556, 1180 573.943 C 1130.055 565.168, 665.308 483.282, 660.261 482.368 C 658.001 481.959, 656.892 482.193, 656.593 483.141 M 713.250 602.220 C 710.572 603.512, 710.407 605.716, 712.772 608.627 C 714.319 610.531, 731.970 613.828, 880.816 640.011 C 1026.810 665.693, 1047.429 669.108, 1049.566 667.965 C 1052.419 666.438, 1052.631 664.328, 1050.228 661.384 C 1048.686 659.496, 1030.652 656.127, 882.914 630.134 C 791.842 614.110, 716.917 601.030, 716.414 601.068 C 715.911 601.105, 714.487 601.624, 713.250 602.220 M 1114.750 673.080 C 1112.551 674.361, 1112.480 678.324, 1114.625 680.104 C 1115.855 681.124, 1249.844 705.699, 1255.561 705.953 C 1256.768 706.006, 1261.012 702.292, 1260.978 701.211 C 1260.966 700.820, 1260.178 699.520, 1259.228 698.322 C 1257.682 696.373, 1250.278 694.875, 1188.804 684.072 C 1151.022 677.433, 1119.297 672.014, 1118.304 672.030 C 1117.312 672.047, 1115.713 672.519, 1114.750 673.080 M 696.219 700.559 C 693.728 702.304, 693.287 706.163, 695.380 707.900 C 696.387 708.736, 820.595 731.298, 839.880 734.148 C 841.562 734.397, 842.869 733.689, 844.339 731.732 L 846.418 728.963 843.959 726.625 C 841.748 724.522, 834.444 723.054, 771.500 712.061 C 733 705.337, 700.811 699.649, 699.969 699.420 C 699.127 699.191, 697.440 699.704, 696.219 700.559 M 1307.200 707.200 C 1305.485 708.915, 1305.719 712.522, 1307.649 714.123 C 1308.609 714.921, 1342.633 721.358, 1389.200 729.554 C 1474.249 744.522, 1471.915 744.257, 1473.267 739.087 C 1474.454 734.549, 1473.152 734.242, 1391.747 719.854 C 1348.711 712.247, 1312.352 706.019, 1310.950 706.012 C 1309.548 706.005, 1307.860 706.540, 1307.200 707.200 M 900.115 737.581 C 895.103 743.952, 895.430 744.054, 954.183 754.421 C 1002.865 763.010, 1006.654 763.542, 1008.719 762.076 C 1009.939 761.209, 1010.951 759.799, 1010.969 758.941 C 1011.061 754.345, 1010.222 754.123, 957.940 744.912 C 930.198 740.024, 906.314 735.770, 904.865 735.459 C 902.809 735.016, 901.766 735.482, 900.115 737.581 M 1505.145 741.611 C 1502.703 743.322, 1502.315 747.186, 1504.411 748.926 C 1505.186 749.570, 1517.899 752.244, 1532.661 754.869 C 1557.504 759.287, 1559.665 759.525, 1561.719 758.071 C 1564.287 756.253, 1564.526 754.279, 1562.504 751.608 C 1561.360 750.097, 1556.183 748.851, 1536.786 745.417 C 1523.429 743.052, 1511.328 740.891, 1509.895 740.613 C 1508.420 740.327, 1506.361 740.760, 1505.145 741.611 M 1104.858 776.693 C 1102.270 779.702, 1102.016 781.705, 1103.998 783.498 C 1106.766 786.003, 1382.545 834.528, 1385.740 833.073 C 1388.240 831.933, 1388.708 828.510, 1386.718 825.905 C 1385.798 824.699, 1351.904 818.392, 1248 800.093 C 1172.375 786.774, 1109.580 775.654, 1108.456 775.382 C 1107.231 775.085, 1105.790 775.610, 1104.858 776.693 M 1455.131 839.026 C 1452.983 840.828, 1452.878 841.291, 1454.003 844.006 C 1454.685 845.653, 1455.575 847, 1455.981 847 C 1456.388 847, 1478.444 850.829, 1504.996 855.510 C 1554.771 864.284, 1554.476 864.255, 1557.235 860.500 C 1558.316 859.028, 1558.183 858.439, 1556.250 856.144 C 1554.746 854.359, 1548.041 852.936, 1508.500 846.012 C 1483.200 841.581, 1461.375 837.750, 1460 837.497 C 1458.428 837.209, 1456.621 837.776, 1455.131 839.026 M 1029.500 1015.168 C 1001.231 1017.992, 959.237 1033.387, 937.659 1048.837 C 933.171 1052.050, 926.575 1056.620, 923 1058.994 C 919.425 1061.367, 914.073 1065.355, 911.106 1067.855 C 908.139 1070.356, 904.670 1072.424, 903.397 1072.451 C 901.816 1072.484, 896.150 1077.205, 885.526 1087.340 C 862.875 1108.947, 852.926 1123.334, 837.679 1156.528 C 834.135 1164.244, 827.979 1177.057, 823.999 1185.001 C 820.019 1192.946, 815.043 1203.413, 812.940 1208.260 L 809.118 1217.074 808.932 1345.493 L 808.747 1473.911 812.059 1483.706 C 815.267 1493.190, 815.631 1493.753, 823.537 1501.500 C 832.082 1509.873, 845.770 1518.432, 855.654 1521.582 C 864.758 1524.484, 883.486 1529.084, 896.165 1531.533 C 903.130 1532.878, 912.670 1534.874, 917.364 1535.968 C 929.576 1538.816, 946.604 1540.878, 963.159 1541.514 C 971.047 1541.817, 990.501 1542.789, 1006.392 1543.675 C 1031.026 1545.048, 1040.309 1545.116, 1069.392 1544.139 C 1088.151 1543.509, 1109.575 1542.553, 1117 1542.014 C 1124.425 1541.475, 1137.700 1540.577, 1146.500 1540.018 C 1155.300 1539.460, 1164.300 1538.584, 1166.500 1538.072 C 1168.700 1537.561, 1175.675 1536.199, 1182 1535.046 C 1188.325 1533.893, 1198.450 1532.008, 1204.500 1530.856 C 1210.550 1529.703, 1219.775 1527.948, 1225 1526.954 C 1237.449 1524.587, 1241.683 1523.482, 1249.233 1520.632 C 1252.680 1519.332, 1258.447 1517.329, 1262.050 1516.182 C 1273.980 1512.383, 1289.904 1503.838, 1298.621 1496.558 C 1300.887 1494.665, 1303.925 1491.097, 1305.371 1488.630 L 1308 1484.144 1308 1355.746 C 1308 1231.644, 1307.502 1207.227, 1304.917 1204.550 C 1304.413 1204.027, 1304 1202.749, 1304 1201.708 C 1304 1200.668, 1303.076 1198.620, 1301.946 1197.158 C 1300.816 1195.696, 1297.067 1189.775, 1293.614 1184 C 1290.161 1178.225, 1285.722 1170.800, 1283.749 1167.500 C 1264.799 1135.800, 1262.049 1132.037, 1239.199 1106.549 C 1224.480 1090.131, 1213.099 1079.554, 1205.884 1075.588 C 1202.795 1073.889, 1197.170 1069.962, 1193.384 1066.860 C 1181.956 1057.497, 1165.520 1047.355, 1145.950 1037.590 C 1118.396 1023.842, 1094.760 1016.830, 1070 1015.058 C 1053.322 1013.864, 1042.256 1013.894, 1029.500 1015.168 M 1037 1065.096 C 1025.609 1066.276, 1016.028 1068.443, 1001.852 1073.048 C 986.207 1078.130, 974.770 1083.596, 964.737 1090.784 C 960.207 1094.031, 953.125 1098.950, 949 1101.716 C 934.109 1111.703, 916.377 1128.448, 901.576 1146.500 C 892.455 1157.625, 878 1176.602, 878 1177.452 C 878 1177.753, 957.459 1178, 1054.576 1178 L 1231.152 1178 1222.902 1167.250 C 1205.878 1145.066, 1190.916 1129.104, 1173.876 1114.944 C 1154.304 1098.681, 1131.268 1084.387, 1112 1076.552 C 1088.651 1067.057, 1060.133 1062.701, 1037 1065.096 M 1050.560 1237.050 C 1048.942 1237.534, 1047.233 1238.620, 1046.760 1239.464 C 1046.287 1240.309, 1045.401 1241, 1044.790 1241 C 1043.325 1241, 1030.040 1254.169, 1030.017 1255.643 C 1030.008 1256.272, 1029.328 1257.044, 1028.506 1257.359 C 1027.684 1257.675, 1026.111 1259.410, 1025.009 1261.216 C 1023.118 1264.319, 1023.007 1266.253, 1023.004 1296.224 L 1023 1327.949 1026.031 1329.516 C 1028.625 1330.858, 1033.366 1331.042, 1058.879 1330.792 C 1082.349 1330.562, 1089.048 1330.208, 1090.348 1329.128 C 1091.822 1327.903, 1092 1324.264, 1092 1295.418 L 1092 1263.081 1089.250 1259.999 C 1084.937 1255.166, 1073.566 1243.759, 1070.297 1240.986 C 1064.559 1236.120, 1058.030 1234.818, 1050.560 1237.050 M 1052 1243.315 C 1048.662 1244.373, 1031 1260.910, 1031 1262.976 C 1031 1263.461, 1030.293 1264.564, 1029.429 1265.429 C 1028 1266.857, 1030.497 1267, 1056.897 1267 C 1084.130 1267, 1085.898 1266.891, 1085.302 1265.250 C 1083.913 1261.422, 1068.871 1246.485, 1063.799 1243.897 C 1059.671 1241.792, 1057.187 1241.669, 1052 1243.315 M 972 1334.921 C 972 1335.427, 970.603 1336.148, 968.896 1336.523 C 963.723 1337.659, 957 1341.009, 957 1342.450 C 957 1343.196, 955.422 1345.087, 953.494 1346.653 C 948.648 1350.587, 945.571 1359.407, 946.361 1367.093 C 947.071 1373.997, 950.066 1381.201, 953.448 1384.142 C 954.852 1385.362, 956 1386.922, 956 1387.608 C 956 1388.294, 957.082 1389.706, 958.405 1390.746 C 959.727 1391.786, 961.657 1394.032, 962.694 1395.737 C 964.677 1398.998, 969.954 1405.661, 973.750 1409.698 C 974.987 1411.014, 976 1412.408, 976 1412.796 C 976 1413.184, 977.800 1415.470, 980 1417.877 C 982.200 1420.284, 984 1422.469, 984 1422.732 C 984 1423.315, 989.617 1430.550, 992.740 1433.990 C 993.983 1435.359, 995 1436.784, 995 1437.156 C 995 1437.528, 996.800 1439.763, 999 1442.122 C 1001.200 1444.481, 1003.008 1446.881, 1003.017 1447.456 C 1003.026 1448.030, 1004.826 1450.267, 1007.017 1452.426 C 1009.208 1454.585, 1011 1456.962, 1011 1457.707 C 1011 1458.453, 1011.674 1459.321, 1012.497 1459.637 C 1013.321 1459.953, 1015.421 1462.414, 1017.166 1465.106 C 1018.910 1467.798, 1020.699 1470, 1021.143 1470 C 1021.586 1470, 1022.637 1471.332, 1023.479 1472.959 C 1025.597 1477.055, 1034.830 1486.405, 1038.700 1488.373 C 1040.460 1489.268, 1042.260 1490.575, 1042.700 1491.279 C 1043.947 1493.272, 1051.655 1496.314, 1055.202 1496.213 C 1058.891 1496.108, 1066.124 1493.158, 1067.300 1491.279 C 1067.740 1490.575, 1069.540 1489.267, 1071.300 1488.372 C 1075.024 1486.477, 1084.548 1476.774, 1086.624 1472.760 C 1087.409 1471.242, 1088.414 1470, 1088.857 1470 C 1089.301 1470, 1091.090 1467.798, 1092.834 1465.106 C 1094.579 1462.414, 1096.679 1459.953, 1097.503 1459.637 C 1098.326 1459.321, 1099 1458.453, 1099 1457.707 C 1099 1456.962, 1100.792 1454.585, 1102.983 1452.426 C 1105.174 1450.267, 1106.974 1448.007, 1106.983 1447.403 C 1106.992 1446.800, 1108.463 1444.775, 1110.250 1442.903 C 1112.037 1441.031, 1114.828 1437.545, 1116.451 1435.156 C 1118.074 1432.767, 1120.886 1429.192, 1122.701 1427.211 C 1124.515 1425.230, 1126 1423.304, 1126 1422.931 C 1126 1422.558, 1127.800 1420.284, 1130 1417.877 C 1132.200 1415.470, 1134 1413.184, 1134 1412.796 C 1134 1412.408, 1135.013 1411.014, 1136.250 1409.698 C 1140.046 1405.661, 1145.323 1398.998, 1147.306 1395.737 C 1148.343 1394.032, 1150.273 1391.786, 1151.595 1390.746 C 1152.918 1389.706, 1154 1388.298, 1154 1387.617 C 1154 1386.937, 1155.300 1385.050, 1156.888 1383.426 C 1166.083 1374.021, 1165.883 1354.474, 1156.514 1346.751 C 1154.581 1345.158, 1153 1343.233, 1153 1342.474 C 1153 1341.013, 1146.311 1337.667, 1141.104 1336.523 C 1139.397 1336.148, 1138 1335.427, 1138 1334.921 C 1138 1334.414, 1135.300 1334, 1132 1334 C 1128.700 1334, 1126 1334.378, 1126 1334.839 C 1126 1335.301, 1124.884 1336.188, 1123.519 1336.809 C 1119.464 1338.657, 1107 1350.478, 1107 1352.476 C 1107 1353.043, 1105.634 1354.796, 1103.965 1356.371 C 1102.295 1357.947, 1100.258 1360.533, 1099.439 1362.118 C 1098.619 1363.703, 1097.529 1365, 1097.016 1365 C 1096.504 1365, 1094.892 1367.035, 1093.434 1369.523 C 1091.976 1372.010, 1089.932 1374.501, 1088.892 1375.058 C 1087.851 1375.615, 1087 1376.661, 1087 1377.382 C 1087 1378.103, 1085.425 1380.315, 1083.500 1382.297 C 1081.575 1384.279, 1080 1386.319, 1080 1386.830 C 1080 1387.341, 1078.200 1389.614, 1076 1391.881 C 1073.800 1394.148, 1072 1396.364, 1072 1396.806 C 1072 1397.248, 1070.425 1399.329, 1068.500 1401.430 C 1066.575 1403.532, 1065 1405.467, 1065 1405.731 C 1065 1405.995, 1063.987 1407.462, 1062.750 1408.992 C 1061.513 1410.521, 1059.173 1413.412, 1057.551 1415.416 C 1054.842 1418.763, 1054.517 1418.909, 1053.551 1417.204 C 1052.973 1416.183, 1051.944 1414.707, 1051.265 1413.924 C 1048.389 1410.608, 1045 1406.176, 1045 1405.731 C 1045 1405.467, 1043.425 1403.532, 1041.500 1401.430 C 1039.575 1399.329, 1038 1397.248, 1038 1396.806 C 1038 1396.364, 1036.200 1394.148, 1034 1391.881 C 1031.800 1389.614, 1030 1387.420, 1030 1387.005 C 1030 1386.591, 1028.425 1384.532, 1026.500 1382.430 C 1024.575 1380.329, 1023 1378.038, 1023 1377.340 C 1023 1376.642, 1022.149 1375.615, 1021.108 1375.058 C 1020.068 1374.501, 1018.024 1372.010, 1016.566 1369.523 C 1015.108 1367.035, 1013.496 1365, 1012.984 1365 C 1012.471 1365, 1011.381 1363.703, 1010.561 1362.118 C 1009.742 1360.533, 1007.705 1357.947, 1006.035 1356.371 C 1004.366 1354.796, 1003 1353.043, 1003 1352.476 C 1003 1350.465, 990.486 1338.698, 986.250 1336.726 C 985.013 1336.150, 984 1335.301, 984 1334.839 C 984 1334.378, 981.300 1334, 978 1334 C 974.700 1334, 972 1334.414, 972 1334.921 M 1320 1372.500 C 1320 1372.775, 1320.225 1373, 1320.500 1373 C 1320.775 1373, 1321 1372.775, 1321 1372.500 C 1321 1372.225, 1320.775 1372, 1320.500 1372 C 1320.225 1372, 1320 1372.225, 1320 1372.500" stroke="none" fill="#8b9bb4" fill-rule="evenodd"/><path d="M 531.593 449.141 C 531.357 449.888, 514.919 542.975, 495.062 656 C 475.206 769.025, 458.708 862.738, 458.400 864.250 L 457.841 867 523.341 867 L 588.841 867 589.387 864.250 C 591.227 854.984, 594.078 837.745, 593.814 837.481 C 593.641 837.308, 580 834.822, 563.500 831.955 C 532.023 826.487, 530 825.817, 530 820.868 C 530 816.342, 533.238 816.449, 564.948 822.024 C 581.489 824.932, 595.261 827.072, 595.553 826.781 C 596.593 825.740, 621.015 684.617, 620.265 683.980 C 619.844 683.623, 608.763 681.470, 595.639 679.196 C 582.516 676.922, 571.153 674.542, 570.389 673.908 C 568.256 672.138, 568.716 668.229, 571.250 666.598 C 573.267 665.300, 576.035 665.598, 598 669.485 C 611.475 671.869, 622.620 673.703, 622.767 673.560 C 622.913 673.417, 626.530 653.495, 630.803 629.288 L 638.574 585.276 614.037 581.021 C 593.194 577.407, 589.240 576.445, 587.772 574.633 C 585.266 571.539, 585.609 569.405, 588.828 568.071 C 591.190 567.093, 595.564 567.586, 615.410 571.068 C 628.652 573.392, 639.515 574.852, 639.958 574.368 C 640.395 573.891, 644.264 553.250, 648.555 528.500 C 652.847 503.750, 656.664 483.136, 657.038 482.691 C 657.412 482.246, 666.669 483.469, 677.609 485.408 C 688.549 487.348, 803.475 507.606, 933 530.426 C 1062.525 553.247, 1251.695 586.579, 1353.378 604.498 C 1455.060 622.417, 1538.419 636.914, 1538.620 636.713 C 1539.087 636.247, 1541.095 625.724, 1540.755 625.533 C 1540.543 625.415, 1214.974 568.049, 1055 539.943 C 1005.055 531.168, 540.308 449.282, 535.261 448.368 C 533.001 447.959, 531.892 448.193, 531.593 449.141" stroke="none" fill="#ffffff" fill-rule="evenodd"/><path d="" stroke="none" fill="#9eacc0" fill-rule="evenodd"/><path d="" stroke="none" fill="#b05239" fill-rule="evenodd"/></svg>