<svg xmlns="http://www.w3.org/2000/svg" width="2028" height="2028" viewBox="0 0 2028 2028" version="1.1"><path d="M 659.430 818.853 C 656.802 819.334, 653.993 821.964, 654.033 823.905 C 654.052 824.782, 654.855 826.443, 655.819 827.596 L 657.571 829.692 832.243 829.596 C 1005.687 829.501, 1006.925 829.486, 1008.425 827.500 C 1010.514 824.735, 1010.364 822.639, 1007.916 820.424 C 1005.891 818.592, 1000.943 818.537, 833.596 818.519 C 738.866 818.509, 660.491 818.659, 659.430 818.853 M 1076.858 819.702 C 1073.152 821.260, 1072.801 826.231, 1076.250 828.309 C 1079.748 830.417, 1223.367 830.093, 1225.384 827.973 C 1227.977 825.248, 1228.170 822.464, 1225.909 820.418 C 1223.862 818.565, 1221.357 818.500, 1151.753 818.500 C 1097.919 818.500, 1078.994 818.804, 1076.858 819.702 M 1279.500 818.830 C 1276.347 819.437, 1275 821.015, 1275 824.099 C 1275 829.829, 1272.068 829.647, 1362.085 829.489 C 1451.615 829.332, 1448.366 829.538, 1449.151 823.975 C 1449.926 818.483, 1451.776 818.600, 1363 818.519 C 1318.175 818.478, 1280.600 818.618, 1279.500 818.830 M 1481.537 819.959 C 1479.561 822.142, 1479.562 826.392, 1481.538 828.032 C 1482.701 828.997, 1490.049 829.332, 1511.599 829.404 C 1539.614 829.498, 1540.158 829.461, 1542.155 827.335 C 1543.536 825.865, 1543.974 824.492, 1543.519 823.058 C 1542.069 818.490, 1540.230 818.220, 1510.787 818.241 C 1486 818.259, 1482.912 818.440, 1481.537 819.959 M 655.939 928.564 C 653.635 931.017, 653.493 932.925, 655.419 935.559 C 656.803 937.451, 658.796 937.501, 733.855 937.540 L 810.870 937.580 811.935 935.243 C 812.521 933.958, 813 932.103, 813 931.122 C 813 926.682, 812.191 926.636, 732.911 926.566 C 658.349 926.500, 657.867 926.513, 655.939 928.564 M 869.382 928.473 C 868.622 929.557, 868 931.415, 868 932.600 C 868 937.544, 867.464 937.498, 926.404 937.524 L 981.500 937.547 983.250 935.366 C 985.366 932.728, 985.412 931.129, 983.446 928.528 C 981.994 926.608, 980.501 926.556, 926.359 926.528 C 872.138 926.501, 870.729 926.549, 869.382 928.473 M 1083.628 932.480 C 1082.914 933.591, 1082.090 935.442, 1081.799 936.593 C 1080.533 941.595, 1075.011 941.414, 1229.935 941.459 C 1326.649 941.486, 1375.052 941.161, 1376.435 940.475 C 1379.076 939.164, 1379.581 935.668, 1377.548 932.765 L 1375.961 930.500 1230.445 930.480 C 1085.539 930.461, 1084.923 930.469, 1083.628 932.480 M 1449.742 932.667 C 1449.157 933.950, 1448.076 935, 1447.339 935 C 1443.841 935, 1448.822 940.939, 1452.439 941.080 C 1453.572 941.125, 1476.413 941.181, 1503.195 941.206 C 1554.317 941.254, 1553.699 941.304, 1555.190 936.982 C 1555.471 936.167, 1554.828 934.375, 1553.760 933 L 1551.819 930.500 1501.312 930.417 L 1450.805 930.334 1449.742 932.667 M 644.873 1096.696 C 641.697 1098.031, 641.230 1100.397, 643.539 1103.452 C 644.988 1105.366, 647.159 1105.404, 759.115 1105.452 L 873.214 1105.500 875.166 1101.675 C 876.239 1099.572, 876.941 1097.322, 876.725 1096.675 C 876.150 1094.951, 648.976 1094.970, 644.873 1096.696 M 928.700 1099.768 C 926.940 1102.219, 925.500 1104.473, 925.500 1104.778 C 925.500 1105.082, 940.626 1105.324, 959.114 1105.315 C 990.539 1105.300, 992.897 1105.175, 995.332 1103.399 C 998.633 1100.992, 998.626 1100.280, 995.275 1097.644 C 992.631 1095.564, 991.641 1095.497, 962.224 1095.406 L 931.900 1095.313 928.700 1099.768 M 1062.157 1097.120 C 1060.557 1099.682, 1060.710 1102.515, 1062.531 1104.026 C 1063.740 1105.029, 1079.502 1105.282, 1137.495 1105.229 C 1177.883 1105.193, 1211.422 1104.857, 1212.026 1104.484 C 1212.629 1104.111, 1213.549 1102.687, 1214.069 1101.319 C 1214.843 1099.282, 1214.615 1098.509, 1212.806 1097.044 C 1210.730 1095.363, 1206.200 1095.257, 1136.956 1095.262 C 1066.349 1095.267, 1063.267 1095.343, 1062.157 1097.120 M 1324 1095.752 C 1324 1096.067, 1325.144 1098.276, 1326.542 1100.662 L 1329.084 1105 1337.292 1105.059 C 1384.945 1105.400, 1432.372 1104.871, 1434.038 1103.980 C 1436.752 1102.527, 1436.559 1098.412, 1433.687 1096.531 C 1431.690 1095.222, 1424.061 1095.027, 1377.687 1095.097 C 1348.159 1095.142, 1324 1095.437, 1324 1095.752 M 1468.573 1098.145 C 1466.822 1101.110, 1466.824 1101.268, 1468.632 1103.069 C 1470.323 1104.754, 1472.391 1104.937, 1490.500 1105.004 C 1531.465 1105.153, 1528.541 1105.350, 1530.526 1102.320 C 1532.250 1099.689, 1532.234 1099.598, 1529.647 1097.373 C 1527.043 1095.133, 1526.672 1095.106, 1498.697 1095.094 L 1470.383 1095.082 1468.573 1098.145 M 1262.546 1099.741 C 1261.823 1101.625, 1265.096 1105, 1267.646 1105 C 1269.149 1105, 1268.555 1103.433, 1265.657 1099.750 C 1263.930 1097.556, 1263.385 1097.555, 1262.546 1099.741 M 643.482 1205.020 C 642.667 1205.921, 642 1207.579, 642 1208.706 C 642 1213.511, 640.298 1213.409, 721 1213.409 C 802.324 1213.408, 800 1213.555, 800 1208.413 C 800 1203.454, 800.800 1203.504, 720.232 1203.441 C 651.739 1203.387, 644.831 1203.530, 643.482 1205.020 M 1351 1212.552 L 1351 1217.807 1356.134 1218.153 C 1359.107 1218.354, 1361.999 1217.989, 1363.003 1217.285 C 1363.957 1216.617, 1364.964 1216.298, 1365.242 1216.575 C 1366.462 1217.796, 1366.617 1212.995, 1365.447 1210.212 C 1364.186 1207.213, 1364.002 1207.143, 1357.578 1207.219 L 1351 1207.296 1351 1212.552 M 1436.250 1208.222 C 1433.585 1209.505, 1433.470 1210.631, 1435.573 1214.846 C 1437.082 1217.871, 1437.399 1218.001, 1443.323 1218.017 C 1516.982 1218.213, 1540.228 1217.915, 1541.382 1216.758 C 1543.678 1214.458, 1543.880 1211.249, 1541.865 1209.085 C 1539.983 1207.066, 1539.131 1207.034, 1489.226 1207.085 C 1454.954 1207.121, 1437.770 1207.490, 1436.250 1208.222 M 651.891 1399.109 C 649.462 1401.538, 649.486 1404.225, 651.959 1406.463 C 653.808 1408.136, 659.464 1408.231, 752.709 1408.145 C 840.626 1408.064, 851.491 1407.886, 851.417 1406.527 C 851.371 1405.687, 851.258 1403.227, 851.167 1401.060 L 851 1397.120 752.391 1397.169 C 657.041 1397.216, 653.720 1397.280, 651.891 1399.109 M 1351 1402.500 L 1351 1408 1394.750 1407.986 C 1418.813 1407.979, 1439.513 1407.701, 1440.752 1407.369 C 1442.180 1406.986, 1443.319 1405.620, 1443.866 1403.633 C 1444.582 1401.029, 1444.371 1400.208, 1442.614 1398.772 C 1440.682 1397.193, 1436.647 1397.043, 1395.750 1397.022 L 1351 1397 1351 1402.500 M 1476.913 1399.087 C 1474.709 1401.291, 1474.935 1405.701, 1477.329 1407.225 C 1477.973 1407.634, 1491.112 1407.976, 1506.527 1407.985 C 1530.293 1407.998, 1534.893 1407.763, 1536.777 1406.443 C 1539.473 1404.555, 1539.658 1400.905, 1537.171 1398.655 C 1535.561 1397.197, 1531.982 1397, 1507.171 1397 C 1479.943 1397, 1478.930 1397.070, 1476.913 1399.087 M 651.638 1506.847 C 649.717 1508.970, 649.490 1513.090, 651.200 1514.800 C 652.112 1515.712, 670.676 1516, 728.643 1516 L 804.887 1516 806.443 1513.777 C 808.563 1510.751, 808.402 1509.156, 805.750 1506.940 C 803.592 1505.136, 800.435 1505.059, 728.388 1505.048 C 657.161 1505.037, 653.192 1505.130, 651.638 1506.847 M 865.241 1506.986 C 863.666 1509.508, 863.646 1513.246, 865.200 1514.800 C 866.105 1515.705, 880.099 1516, 922.045 1516 C 974.683 1516, 977.779 1515.901, 979.345 1514.171 C 981.537 1511.749, 981.432 1509.841, 978.961 1507.189 L 976.922 1505 921.702 1505 C 867.690 1505, 866.454 1505.043, 865.241 1506.986 M 1464.250 1508.772 C 1450.889 1508.960, 1445 1509.385, 1445 1510.161 C 1445 1510.776, 1444.213 1511.866, 1443.250 1512.583 C 1441.646 1513.779, 1441.628 1514.121, 1443.038 1516.694 L 1444.576 1519.500 1496.038 1519.738 L 1547.500 1519.976 1549.228 1517.738 C 1551.393 1514.933, 1551.388 1514.062, 1549.193 1511.210 L 1547.430 1508.919 1515.465 1508.710 C 1497.884 1508.594, 1474.838 1508.622, 1464.250 1508.772 M 1080.282 1509.652 C 1079.612 1509.923, 1078.773 1511.693, 1078.418 1513.584 C 1077.114 1520.535, 1064.894 1520, 1224.923 1520 C 1338.001 1520, 1370.175 1519.729, 1372.230 1518.759 C 1375.501 1517.216, 1376.512 1513.297, 1373.857 1512.455 C 1372.836 1512.130, 1372 1511.221, 1372 1510.433 C 1372 1509.195, 1352.195 1509.011, 1226.750 1509.079 C 1146.862 1509.122, 1080.952 1509.380, 1080.282 1509.652 M 647.887 1587.113 C 645.466 1589.534, 645.487 1592.226, 647.945 1594.450 C 649.787 1596.117, 659.090 1596.205, 823.474 1596.109 C 981.651 1596.017, 997.277 1595.864, 999.529 1594.389 C 1002.462 1592.467, 1002.619 1590.322, 1000.052 1587.244 L 998.170 1584.989 823.972 1585.108 C 654.679 1585.223, 649.720 1585.280, 647.887 1587.113 M 1066.241 1586.986 C 1064.111 1590.396, 1064.694 1593.933, 1067.565 1595.025 C 1069.149 1595.627, 1097.748 1595.987, 1142.315 1595.967 C 1210.524 1595.935, 1214.620 1595.834, 1216.671 1594.121 C 1219.702 1591.589, 1219.847 1589.847, 1217.244 1587.244 L 1215 1585 1141.241 1585 C 1068.732 1585, 1067.460 1585.034, 1066.241 1586.986 M 1267.971 1587.049 C 1266.194 1589.525, 1266.556 1593.045, 1268.764 1594.750 C 1270.029 1595.727, 1288.307 1595.997, 1352.441 1595.986 C 1397.574 1595.979, 1435.513 1595.701, 1436.752 1595.369 C 1438.180 1594.986, 1439.319 1593.620, 1439.866 1591.633 C 1440.582 1589.029, 1440.371 1588.208, 1438.614 1586.772 C 1436.649 1585.166, 1430.611 1585.043, 1352.971 1585.022 C 1269.907 1585, 1269.433 1585.011, 1267.971 1587.049 M 1472.913 1587.087 C 1470.709 1589.291, 1470.935 1593.701, 1473.329 1595.225 C 1473.973 1595.634, 1487.112 1595.976, 1502.527 1595.985 C 1526.293 1595.998, 1530.893 1595.763, 1532.777 1594.443 C 1535.473 1592.555, 1535.658 1588.905, 1533.171 1586.655 C 1531.561 1585.197, 1527.982 1585, 1503.171 1585 C 1475.943 1585, 1474.930 1585.070, 1472.913 1587.087 M 647.638 1694.847 C 645.717 1696.970, 645.490 1701.090, 647.200 1702.800 C 648.112 1703.712, 666.676 1704, 724.643 1704 L 800.887 1704 802.443 1701.777 C 804.563 1698.751, 804.402 1697.156, 801.750 1694.940 C 799.592 1693.136, 796.435 1693.059, 724.388 1693.048 C 653.161 1693.037, 649.192 1693.130, 647.638 1694.847 M 861.241 1694.986 C 859.666 1697.508, 859.646 1701.246, 861.200 1702.800 C 862.105 1703.705, 876.099 1704, 918.045 1704 C 970.683 1704, 973.779 1703.901, 975.345 1702.171 C 977.537 1699.749, 977.432 1697.841, 974.961 1695.189 L 972.922 1693 917.702 1693 C 863.690 1693, 862.454 1693.043, 861.241 1694.986 M 1460.250 1696.772 C 1446.889 1696.960, 1441 1697.385, 1441 1698.161 C 1441 1698.776, 1440.213 1699.866, 1439.250 1700.583 C 1437.646 1701.779, 1437.628 1702.121, 1439.038 1704.694 L 1440.576 1707.500 1492.038 1707.738 L 1543.500 1707.976 1545.228 1705.738 C 1547.393 1702.933, 1547.388 1702.062, 1545.193 1699.210 L 1543.430 1696.919 1511.465 1696.710 C 1493.884 1696.594, 1470.838 1696.622, 1460.250 1696.772 M 1076.282 1697.652 C 1075.612 1697.923, 1074.773 1699.693, 1074.418 1701.584 C 1073.114 1708.535, 1060.894 1708, 1220.923 1708 C 1334.001 1708, 1366.175 1707.729, 1368.230 1706.759 C 1371.501 1705.216, 1372.512 1701.297, 1369.857 1700.455 C 1368.836 1700.130, 1368 1699.221, 1368 1698.433 C 1368 1697.195, 1348.195 1697.011, 1222.750 1697.079 C 1142.862 1697.122, 1076.952 1697.380, 1076.282 1697.652" stroke="none" fill="#3f2832" fill-rule="evenodd"/><path d="M 928 1020.913 C 905.025 1043.067, 896.895 1054.836, 880.968 1089 C 876.737 1098.075, 870.237 1111.560, 866.523 1118.966 C 862.808 1126.372, 858.048 1136.401, 855.944 1141.253 L 852.118 1150.074 851.932 1278.493 L 851.747 1406.911 855.059 1416.706 C 858.267 1426.190, 858.631 1426.753, 866.537 1434.500 C 875.082 1442.873, 888.770 1451.432, 898.654 1454.582 C 907.758 1457.484, 926.486 1462.084, 939.165 1464.533 C 946.130 1465.878, 955.670 1467.874, 960.364 1468.968 C 972.576 1471.816, 989.604 1473.878, 1006.159 1474.514 C 1014.047 1474.817, 1033.501 1475.789, 1049.392 1476.675 C 1074.026 1478.048, 1083.309 1478.116, 1112.392 1477.139 C 1131.151 1476.509, 1152.575 1475.553, 1160 1475.014 C 1167.425 1474.475, 1180.700 1473.577, 1189.500 1473.018 C 1198.300 1472.460, 1207.300 1471.584, 1209.500 1471.072 C 1211.700 1470.561, 1218.675 1469.199, 1225 1468.046 C 1231.325 1466.893, 1241.450 1465.008, 1247.500 1463.856 C 1253.550 1462.703, 1262.775 1460.948, 1268 1459.954 C 1280.449 1457.587, 1284.683 1456.482, 1292.233 1453.632 C 1295.680 1452.332, 1301.447 1450.329, 1305.050 1449.182 C 1316.980 1445.383, 1332.904 1436.838, 1341.621 1429.558 C 1343.887 1427.665, 1346.925 1424.097, 1348.371 1421.630 L 1351 1417.144 1351 1288.746 C 1351 1164.644, 1350.502 1140.227, 1347.917 1137.550 C 1347.413 1137.028, 1347 1135.749, 1347 1134.708 C 1347 1133.668, 1346.076 1131.620, 1344.946 1130.158 C 1343.816 1128.696, 1340.067 1122.775, 1336.614 1117 C 1333.161 1111.225, 1328.722 1103.800, 1326.749 1100.500 C 1311.317 1074.685, 1308.967 1071.130, 1300.199 1060.348 C 1281.530 1037.389, 1258.492 1013.878, 1250.223 1009.345 C 1245.108 1006.541, 1243.997 1006.434, 1244.009 1008.750 C 1244.019 1010.696, 1247.394 1014.775, 1269.455 1039.500 C 1295.120 1068.264, 1301.343 1076.572, 1314.019 1099 C 1316.040 1102.575, 1320.277 1109.550, 1323.435 1114.500 C 1326.593 1119.450, 1330.712 1126.526, 1332.589 1130.225 L 1336 1136.950 1336 1275.408 L 1336 1413.866 1331.750 1417.275 C 1327.540 1420.652, 1319.712 1425.483, 1311.667 1429.668 C 1309.375 1430.861, 1303.675 1433.048, 1299 1434.529 C 1294.325 1436.010, 1288.434 1438.053, 1285.910 1439.070 C 1280.284 1441.335, 1275.308 1442.613, 1263 1444.954 C 1257.775 1445.948, 1248.550 1447.703, 1242.500 1448.856 C 1236.450 1450.008, 1226.325 1451.893, 1220 1453.046 C 1213.675 1454.199, 1206.700 1455.563, 1204.500 1456.078 C 1202.300 1456.593, 1193.075 1457.474, 1184 1458.037 C 1174.925 1458.599, 1161.650 1459.505, 1154.500 1460.049 C 1121.027 1462.597, 1082.292 1463.161, 1051 1461.556 C 985.439 1458.192, 983.057 1457.968, 961.500 1453.128 C 956.550 1452.017, 947.775 1450.224, 942 1449.143 C 931.779 1447.230, 913.320 1442.625, 903.770 1439.604 C 893.403 1436.325, 870.573 1421.309, 867.285 1415.607 C 866.617 1414.448, 866.055 1411.798, 866.035 1409.718 C 866.016 1407.638, 865.215 1404.263, 864.255 1402.218 C 862.630 1398.756, 862.490 1390.075, 862.211 1276.077 L 861.911 1153.655 865.585 1145.077 C 867.606 1140.360, 872.632 1129.758, 876.753 1121.517 C 880.874 1113.277, 887.143 1100.227, 890.684 1092.517 C 898.886 1074.659, 906.955 1060.088, 914.250 1049.957 C 917.413 1045.565, 920 1041.598, 920 1041.141 C 920 1040.684, 920.900 1039.495, 922 1038.500 C 923.100 1037.505, 924 1036.250, 924 1035.711 C 924 1035.173, 927.038 1031.519, 930.750 1027.592 C 942.802 1014.844, 949.184 1007.106, 948.526 1006.042 C 946.942 1003.480, 943.472 1005.994, 928 1020.913" stroke="none" fill="#8b9bb4" fill-rule="evenodd"/><path d="M 1015 1267.921 C 1015 1268.427, 1013.603 1269.148, 1011.896 1269.523 C 1006.121 1270.791, 999.999 1274.024, 1000.015 1275.797 C 1000.025 1276.907, 1000.287 1277.098, 1000.766 1276.345 C 1001.638 1274.975, 1012.082 1271.330, 1017.722 1270.428 C 1020.418 1269.997, 1022.651 1270.285, 1024.656 1271.322 C 1027.930 1273.015, 1039 1283.064, 1039 1284.344 C 1039 1284.789, 1040.350 1286.504, 1042 1288.154 C 1043.650 1289.804, 1045 1291.956, 1045 1292.936 C 1045 1293.917, 1046.570 1296.245, 1048.489 1298.110 C 1050.408 1299.974, 1051.983 1301.987, 1051.989 1302.583 C 1051.995 1303.179, 1053.481 1305.204, 1055.292 1307.083 C 1057.102 1308.963, 1059.690 1312.184, 1061.042 1314.243 C 1062.394 1316.302, 1063.826 1317.989, 1064.224 1317.993 C 1064.623 1317.997, 1065.590 1319.237, 1066.374 1320.750 C 1067.157 1322.263, 1068.856 1324.648, 1070.149 1326.052 C 1071.442 1327.456, 1073.826 1330.381, 1075.447 1332.552 C 1077.068 1334.723, 1078.643 1336.725, 1078.947 1337 C 1079.988 1337.941, 1086 1345.882, 1086 1346.316 C 1086 1346.554, 1087.575 1348.468, 1089.500 1350.570 C 1091.425 1352.671, 1093.014 1354.865, 1093.031 1355.445 C 1093.049 1356.025, 1094.174 1357.309, 1095.531 1358.297 C 1097.907 1360.026, 1098.093 1360.026, 1100.469 1358.297 C 1101.826 1357.309, 1102.951 1356.025, 1102.969 1355.445 C 1102.986 1354.865, 1104.575 1352.671, 1106.500 1350.570 C 1108.425 1348.468, 1110 1346.554, 1110 1346.316 C 1110 1345.828, 1115.545 1338.640, 1118.316 1335.535 C 1119.315 1334.416, 1121.039 1332.037, 1122.148 1330.250 C 1123.256 1328.463, 1124.487 1327, 1124.882 1327 C 1125.278 1327, 1126.881 1324.975, 1128.446 1322.500 C 1130.010 1320.025, 1131.562 1317.997, 1131.895 1317.993 C 1132.228 1317.989, 1133.606 1316.302, 1134.958 1314.243 C 1136.310 1312.184, 1138.898 1308.963, 1140.708 1307.083 C 1142.519 1305.204, 1144.005 1303.179, 1144.011 1302.583 C 1144.017 1301.988, 1145.592 1299.974, 1147.511 1298.110 C 1149.430 1296.245, 1151 1293.917, 1151 1292.936 C 1151 1291.956, 1152.350 1289.804, 1154 1288.154 C 1155.650 1286.504, 1157 1284.747, 1157 1284.250 C 1157 1282.914, 1167.837 1273.135, 1171.307 1271.341 C 1173.347 1270.286, 1175.569 1269.995, 1178.278 1270.428 C 1183.918 1271.330, 1194.362 1274.975, 1195.234 1276.345 C 1195.713 1277.098, 1195.975 1276.907, 1195.985 1275.797 C 1196.001 1274.024, 1189.879 1270.791, 1184.104 1269.523 C 1182.397 1269.148, 1181 1268.427, 1181 1267.921 C 1181 1267.414, 1178.300 1267, 1175 1267 C 1171.700 1267, 1169 1267.378, 1169 1267.839 C 1169 1268.301, 1167.884 1269.188, 1166.519 1269.809 C 1162.464 1271.657, 1150 1283.478, 1150 1285.476 C 1150 1286.043, 1148.634 1287.796, 1146.965 1289.371 C 1145.295 1290.947, 1143.258 1293.533, 1142.439 1295.118 C 1141.619 1296.703, 1140.529 1298, 1140.016 1298 C 1139.504 1298, 1137.892 1300.035, 1136.434 1302.523 C 1134.976 1305.010, 1132.932 1307.501, 1131.892 1308.058 C 1130.851 1308.615, 1130 1309.661, 1130 1310.382 C 1130 1311.103, 1128.425 1313.315, 1126.500 1315.297 C 1124.575 1317.279, 1123 1319.319, 1123 1319.830 C 1123 1320.341, 1121.200 1322.614, 1119 1324.881 C 1116.800 1327.148, 1115 1329.364, 1115 1329.806 C 1115 1330.248, 1113.425 1332.329, 1111.500 1334.430 C 1109.575 1336.532, 1108 1338.467, 1108 1338.731 C 1108 1338.995, 1106.987 1340.462, 1105.750 1341.992 C 1104.513 1343.521, 1102.173 1346.412, 1100.551 1348.416 C 1097.842 1351.763, 1097.517 1351.909, 1096.551 1350.204 C 1095.973 1349.183, 1094.944 1347.707, 1094.265 1346.924 C 1091.389 1343.608, 1088 1339.176, 1088 1338.731 C 1088 1338.467, 1086.425 1336.532, 1084.500 1334.430 C 1082.575 1332.329, 1081 1330.248, 1081 1329.806 C 1081 1329.364, 1079.200 1327.148, 1077 1324.881 C 1074.800 1322.614, 1073 1320.420, 1073 1320.005 C 1073 1319.591, 1071.425 1317.532, 1069.500 1315.430 C 1067.575 1313.329, 1066 1311.038, 1066 1310.340 C 1066 1309.642, 1065.149 1308.615, 1064.108 1308.058 C 1063.068 1307.501, 1061.024 1305.010, 1059.566 1302.523 C 1058.108 1300.035, 1056.496 1298, 1055.984 1298 C 1055.471 1298, 1054.381 1296.703, 1053.561 1295.118 C 1052.742 1293.533, 1050.705 1290.947, 1049.035 1289.371 C 1047.366 1287.796, 1046 1286.043, 1046 1285.476 C 1046 1283.465, 1033.486 1271.698, 1029.250 1269.726 C 1028.013 1269.150, 1027 1268.301, 1027 1267.839 C 1027 1267.378, 1024.300 1267, 1021 1267 C 1017.700 1267, 1015 1267.414, 1015 1267.921" stroke="none" fill="#2ce8f5" fill-rule="evenodd"/><path d="M 1015.500 1270.714 C 1009.640 1272.128, 1001.713 1275.258, 999.742 1276.937 C 998.509 1277.988, 996.484 1279.670, 995.243 1280.674 C 991.657 1283.575, 988.675 1293.421, 989.361 1300.093 C 990.071 1306.997, 993.066 1314.201, 996.448 1317.142 C 997.852 1318.362, 999 1319.922, 999 1320.608 C 999 1321.294, 1000.082 1322.706, 1001.405 1323.746 C 1002.727 1324.786, 1004.657 1327.032, 1005.694 1328.737 C 1007.677 1331.998, 1012.954 1338.661, 1016.750 1342.698 C 1017.987 1344.014, 1019 1345.408, 1019 1345.796 C 1019 1346.184, 1020.800 1348.470, 1023 1350.877 C 1025.200 1353.284, 1027 1355.469, 1027 1355.732 C 1027 1356.315, 1032.617 1363.550, 1035.740 1366.990 C 1036.983 1368.359, 1038 1369.784, 1038 1370.156 C 1038 1370.528, 1039.800 1372.763, 1042 1375.122 C 1044.200 1377.481, 1046.008 1379.881, 1046.017 1380.456 C 1046.026 1381.030, 1047.826 1383.267, 1050.017 1385.426 C 1052.208 1387.585, 1054 1389.962, 1054 1390.707 C 1054 1391.453, 1054.674 1392.321, 1055.497 1392.637 C 1056.321 1392.953, 1058.421 1395.414, 1060.166 1398.106 C 1061.910 1400.798, 1063.699 1403, 1064.143 1403 C 1064.586 1403, 1065.637 1404.332, 1066.479 1405.959 C 1068.597 1410.055, 1077.830 1419.405, 1081.700 1421.373 C 1083.460 1422.268, 1085.260 1423.575, 1085.700 1424.279 C 1086.947 1426.272, 1094.655 1429.314, 1098.202 1429.213 C 1101.891 1429.108, 1109.124 1426.158, 1110.300 1424.279 C 1110.740 1423.575, 1112.540 1422.267, 1114.300 1421.372 C 1118.024 1419.477, 1127.548 1409.774, 1129.624 1405.760 C 1130.409 1404.242, 1131.414 1403, 1131.857 1403 C 1132.301 1403, 1134.090 1400.798, 1135.834 1398.106 C 1137.579 1395.414, 1139.679 1392.953, 1140.503 1392.637 C 1141.326 1392.321, 1142 1391.453, 1142 1390.707 C 1142 1389.962, 1143.792 1387.585, 1145.983 1385.426 C 1148.174 1383.267, 1149.974 1381.007, 1149.983 1380.403 C 1149.992 1379.800, 1151.463 1377.775, 1153.250 1375.903 C 1155.037 1374.031, 1157.828 1370.545, 1159.451 1368.156 C 1161.074 1365.767, 1163.886 1362.192, 1165.701 1360.211 C 1167.515 1358.230, 1169 1356.304, 1169 1355.931 C 1169 1355.558, 1170.800 1353.284, 1173 1350.877 C 1175.200 1348.470, 1177 1346.184, 1177 1345.796 C 1177 1345.408, 1178.013 1344.014, 1179.250 1342.698 C 1183.046 1338.661, 1188.323 1331.998, 1190.306 1328.737 C 1191.343 1327.032, 1193.273 1324.786, 1194.595 1323.746 C 1195.918 1322.706, 1197 1321.298, 1197 1320.617 C 1197 1319.937, 1198.300 1318.050, 1199.888 1316.426 C 1206.355 1309.811, 1208.521 1298.215, 1205.103 1288.500 C 1203.943 1285.200, 1202.248 1281.948, 1201.337 1281.273 C 1200.426 1280.598, 1198.417 1278.920, 1196.873 1277.545 C 1193.924 1274.917, 1185.006 1271.504, 1178.278 1270.428 C 1175.569 1269.995, 1173.347 1270.286, 1171.307 1271.341 C 1167.837 1273.135, 1157 1282.914, 1157 1284.250 C 1157 1284.747, 1155.650 1286.504, 1154 1288.154 C 1152.350 1289.804, 1151 1291.956, 1151 1292.936 C 1151 1293.917, 1149.430 1296.245, 1147.511 1298.110 C 1145.592 1299.974, 1144.017 1301.988, 1144.011 1302.583 C 1144.005 1303.179, 1142.519 1305.204, 1140.708 1307.083 C 1138.898 1308.963, 1136.310 1312.184, 1134.958 1314.243 C 1133.606 1316.302, 1132.228 1317.989, 1131.895 1317.993 C 1131.562 1317.997, 1130.010 1320.025, 1128.446 1322.500 C 1126.881 1324.975, 1125.278 1327, 1124.882 1327 C 1124.487 1327, 1123.256 1328.463, 1122.148 1330.250 C 1121.039 1332.037, 1119.315 1334.416, 1118.316 1335.535 C 1115.545 1338.640, 1110 1345.828, 1110 1346.316 C 1110 1346.554, 1108.425 1348.468, 1106.500 1350.570 C 1104.575 1352.671, 1102.986 1354.865, 1102.969 1355.445 C 1102.951 1356.025, 1101.826 1357.309, 1100.469 1358.297 C 1098.093 1360.026, 1097.907 1360.026, 1095.531 1358.297 C 1094.174 1357.309, 1093.049 1356.025, 1093.031 1355.445 C 1093.014 1354.865, 1091.425 1352.671, 1089.500 1350.570 C 1087.575 1348.468, 1086 1346.554, 1086 1346.316 C 1086 1345.882, 1079.988 1337.941, 1078.947 1337 C 1078.643 1336.725, 1077.068 1334.723, 1075.447 1332.552 C 1073.826 1330.381, 1071.442 1327.456, 1070.149 1326.052 C 1068.856 1324.648, 1067.157 1322.263, 1066.374 1320.750 C 1065.590 1319.237, 1064.623 1317.997, 1064.224 1317.993 C 1063.826 1317.989, 1062.394 1316.302, 1061.042 1314.243 C 1059.690 1312.184, 1057.102 1308.963, 1055.292 1307.083 C 1053.481 1305.204, 1051.995 1303.179, 1051.989 1302.583 C 1051.983 1301.987, 1050.408 1299.974, 1048.489 1298.110 C 1046.570 1296.245, 1045 1293.917, 1045 1292.936 C 1045 1291.956, 1043.650 1289.804, 1042 1288.154 C 1040.350 1286.504, 1039 1284.800, 1039 1284.368 C 1039 1283.202, 1029.266 1274.133, 1025.642 1271.924 C 1022.597 1270.067, 1019.645 1269.715, 1015.500 1270.714" stroke="none" fill="#0095e9" fill-rule="evenodd"/><path d="M 583.016 702.819 C 580.550 702.994, 578.246 703.603, 577.895 704.171 C 577.544 704.739, 577.184 923.295, 577.096 1189.852 C 577.008 1456.408, 576.838 1693.302, 576.718 1716.282 L 576.500 1758.064 1102.500 1757.782 L 1628.500 1757.500 1628.718 1723 C 1628.839 1704.025, 1628.995 1466.650, 1629.066 1195.500 L 1629.194 702.500 1108.347 702.500 C 821.881 702.500, 585.482 702.644, 583.016 702.819 M 659.430 818.853 C 656.802 819.334, 653.993 821.964, 654.033 823.905 C 654.052 824.782, 654.855 826.443, 655.819 827.596 L 657.571 829.692 832.243 829.596 C 1005.687 829.501, 1006.925 829.486, 1008.425 827.500 C 1010.514 824.735, 1010.364 822.639, 1007.916 820.424 C 1005.891 818.592, 1000.943 818.537, 833.596 818.519 C 738.866 818.509, 660.491 818.659, 659.430 818.853 M 1076.858 819.702 C 1073.152 821.260, 1072.801 826.231, 1076.250 828.309 C 1079.748 830.417, 1223.367 830.093, 1225.384 827.973 C 1227.977 825.248, 1228.170 822.464, 1225.909 820.418 C 1223.862 818.565, 1221.357 818.500, 1151.753 818.500 C 1097.919 818.500, 1078.994 818.804, 1076.858 819.702 M 1279.500 818.830 C 1276.347 819.437, 1275 821.015, 1275 824.099 C 1275 829.829, 1272.068 829.647, 1362.085 829.489 C 1451.615 829.332, 1448.366 829.538, 1449.151 823.975 C 1449.926 818.483, 1451.776 818.600, 1363 818.519 C 1318.175 818.478, 1280.600 818.618, 1279.500 818.830 M 1481.537 819.959 C 1479.561 822.142, 1479.562 826.392, 1481.538 828.032 C 1482.701 828.997, 1490.049 829.332, 1511.599 829.404 C 1539.614 829.498, 1540.158 829.461, 1542.155 827.335 C 1543.536 825.865, 1543.974 824.492, 1543.519 823.058 C 1542.069 818.490, 1540.230 818.220, 1510.787 818.241 C 1486 818.259, 1482.912 818.440, 1481.537 819.959 M 655.939 928.564 C 653.635 931.017, 653.493 932.925, 655.419 935.559 C 656.803 937.451, 658.796 937.501, 733.855 937.540 L 810.870 937.580 811.935 935.243 C 812.521 933.958, 813 932.103, 813 931.122 C 813 926.682, 812.191 926.636, 732.911 926.566 C 658.349 926.500, 657.867 926.513, 655.939 928.564 M 869.382 928.473 C 868.622 929.557, 868 931.415, 868 932.600 C 868 937.544, 867.464 937.498, 926.404 937.524 L 981.500 937.547 983.250 935.366 C 985.366 932.728, 985.412 931.129, 983.446 928.528 C 981.994 926.608, 980.501 926.556, 926.359 926.528 C 872.138 926.501, 870.729 926.549, 869.382 928.473 M 1083.628 932.480 C 1082.914 933.591, 1082.090 935.442, 1081.799 936.593 C 1080.533 941.595, 1075.011 941.414, 1229.935 941.459 C 1326.649 941.486, 1375.052 941.161, 1376.435 940.475 C 1379.076 939.164, 1379.581 935.668, 1377.548 932.765 L 1375.961 930.500 1230.445 930.480 C 1085.539 930.461, 1084.923 930.469, 1083.628 932.480 M 1449.742 932.667 C 1449.157 933.950, 1448.076 935, 1447.339 935 C 1443.841 935, 1448.822 940.939, 1452.439 941.080 C 1453.572 941.125, 1476.413 941.181, 1503.195 941.206 C 1554.317 941.254, 1553.699 941.304, 1555.190 936.982 C 1555.471 936.167, 1554.828 934.375, 1553.760 933 L 1551.819 930.500 1501.312 930.417 L 1450.805 930.334 1449.742 932.667 M 1072.500 948.168 C 1044.231 950.992, 1002.237 966.387, 980.659 981.837 C 976.171 985.050, 969.575 989.620, 966 991.994 C 962.425 994.367, 957.073 998.355, 954.106 1000.855 C 951.139 1003.356, 947.670 1005.424, 946.397 1005.451 C 942.795 1005.527, 914.562 1033.010, 905.735 1045.032 C 897.780 1055.865, 889.607 1070.118, 882.529 1085.500 L 877.927 1095.500 763.214 1095.423 C 642.062 1095.341, 642 1095.344, 642 1099.760 C 642 1100.785, 642.813 1102.495, 643.806 1103.561 C 645.574 1105.459, 647.990 1105.497, 757.056 1105.371 C 818.350 1105.300, 869.494 1105.457, 870.708 1105.719 C 872.828 1106.177, 872.653 1106.720, 866.319 1119.348 C 862.691 1126.582, 858.097 1136.100, 856.111 1140.500 L 852.500 1148.500 852 1272.167 C 851.725 1340.184, 851.210 1396.124, 850.855 1396.478 C 850.501 1396.833, 806.015 1397.144, 751.997 1397.170 C 657.024 1397.215, 653.721 1397.279, 651.892 1399.108 C 649.463 1401.537, 649.486 1404.225, 651.955 1406.459 C 653.795 1408.125, 659.734 1408.237, 753.092 1408.364 L 852.274 1408.500 855.327 1417.500 C 858.226 1426.047, 858.791 1426.903, 866.541 1434.500 C 875.082 1442.873, 888.766 1451.431, 898.654 1454.582 C 907.758 1457.484, 926.486 1462.084, 939.165 1464.533 C 946.130 1465.878, 955.670 1467.874, 960.364 1468.968 C 972.576 1471.816, 989.604 1473.878, 1006.159 1474.514 C 1014.047 1474.817, 1033.501 1475.789, 1049.392 1476.675 C 1074.026 1478.048, 1083.309 1478.116, 1112.392 1477.139 C 1131.151 1476.509, 1152.575 1475.553, 1160 1475.014 C 1167.425 1474.475, 1180.700 1473.577, 1189.500 1473.018 C 1198.300 1472.460, 1207.300 1471.584, 1209.500 1471.072 C 1211.700 1470.561, 1218.675 1469.199, 1225 1468.046 C 1231.325 1466.893, 1241.450 1465.008, 1247.500 1463.856 C 1253.550 1462.703, 1262.775 1460.948, 1268 1459.954 C 1280.449 1457.587, 1284.683 1456.482, 1292.233 1453.632 C 1295.680 1452.332, 1301.447 1450.329, 1305.050 1449.182 C 1316.980 1445.383, 1332.904 1436.838, 1341.621 1429.558 C 1347.422 1424.713, 1351 1418.233, 1351 1412.572 L 1351 1408 1394.750 1407.986 C 1418.813 1407.979, 1439.513 1407.701, 1440.752 1407.369 C 1442.180 1406.986, 1443.319 1405.620, 1443.866 1403.633 C 1444.582 1401.029, 1444.371 1400.208, 1442.614 1398.772 C 1440.682 1397.193, 1436.647 1397.043, 1395.750 1397.022 L 1351 1397 1351 1307.449 L 1351 1217.897 1356.444 1218.117 C 1359.439 1218.239, 1362.517 1217.816, 1363.286 1217.178 C 1364.055 1216.539, 1364.923 1216.256, 1365.215 1216.548 C 1366.466 1217.799, 1366.627 1213.017, 1365.429 1210.170 C 1364.191 1207.224, 1363.833 1207.060, 1358.810 1207.126 C 1355.890 1207.165, 1352.938 1207.152, 1352.250 1207.098 C 1351.289 1207.023, 1351 1201.616, 1351 1183.674 C 1351 1160.136, 1349.607 1139.301, 1347.917 1137.550 C 1347.413 1137.027, 1347 1135.749, 1347 1134.708 C 1347 1133.668, 1346.076 1131.620, 1344.946 1130.158 C 1343.153 1127.838, 1330 1106.046, 1330 1105.395 C 1330 1105.261, 1352.943 1105.137, 1380.984 1105.119 C 1415.493 1105.098, 1432.619 1104.739, 1433.984 1104.009 C 1436.751 1102.528, 1436.588 1098.432, 1433.687 1096.531 C 1431.690 1095.222, 1424.053 1095.027, 1377.610 1095.097 C 1348.040 1095.142, 1323.741 1095.026, 1323.612 1094.840 C 1323.484 1094.653, 1320.931 1090.586, 1317.939 1085.802 C 1308 1069.908, 1307.069 1068.536, 1302.457 1063 C 1290.091 1048.156, 1269.675 1025.712, 1262.513 1019.088 C 1258.106 1015.011, 1251.973 1010.286, 1248.884 1008.588 C 1245.795 1006.889, 1240.170 1002.962, 1236.384 999.860 C 1224.956 990.497, 1208.520 980.355, 1188.950 970.590 C 1161.396 956.842, 1137.760 949.830, 1113 948.058 C 1096.322 946.864, 1085.256 946.894, 1072.500 948.168 M 1080 998.096 C 1068.609 999.276, 1059.028 1001.443, 1044.852 1006.048 C 1029.207 1011.130, 1017.770 1016.596, 1007.737 1023.784 C 1003.207 1027.031, 996.125 1031.950, 992 1034.716 C 982.918 1040.807, 969.095 1052.692, 959.177 1062.936 C 949.739 1072.685, 932.531 1093.864, 933.367 1094.701 C 933.722 1095.056, 947.183 1095.380, 963.281 1095.423 C 991.630 1095.498, 992.634 1095.567, 995.274 1097.644 C 998.627 1100.281, 998.633 1100.992, 995.328 1103.403 C 992.885 1105.185, 990.552 1105.306, 958.641 1105.312 C 925.297 1105.318, 924.525 1105.363, 922.815 1107.409 C 921.853 1108.559, 921.052 1109.838, 921.033 1110.250 C 921.015 1110.662, 1000.438 1111, 1097.530 1111 L 1274.060 1111 1271.842 1108 C 1270.622 1106.350, 1268.858 1105, 1267.923 1105 C 1266.987 1105, 1265.206 1104.178, 1263.965 1103.172 C 1262.149 1101.702, 1261.914 1100.975, 1262.765 1099.455 C 1264.020 1097.213, 1262.537 1095.120, 1247.913 1078.500 C 1233.976 1062.661, 1230.671 1059.407, 1216.876 1047.944 C 1197.304 1031.681, 1174.268 1017.387, 1155 1009.552 C 1131.651 1000.057, 1103.133 995.701, 1080 998.096 M 1062.157 1097.120 C 1060.557 1099.682, 1060.710 1102.515, 1062.531 1104.026 C 1063.740 1105.029, 1079.502 1105.282, 1137.495 1105.229 C 1177.883 1105.193, 1211.422 1104.857, 1212.026 1104.484 C 1212.629 1104.111, 1213.549 1102.687, 1214.069 1101.319 C 1214.843 1099.282, 1214.615 1098.509, 1212.806 1097.044 C 1210.730 1095.363, 1206.200 1095.257, 1136.956 1095.262 C 1066.349 1095.267, 1063.267 1095.343, 1062.157 1097.120 M 1468.573 1098.145 C 1466.822 1101.110, 1466.824 1101.268, 1468.632 1103.069 C 1470.323 1104.754, 1472.391 1104.937, 1490.500 1105.004 C 1531.465 1105.153, 1528.541 1105.350, 1530.526 1102.320 C 1532.250 1099.689, 1532.234 1099.598, 1529.647 1097.373 C 1527.043 1095.133, 1526.672 1095.106, 1498.697 1095.094 L 1470.383 1095.082 1468.573 1098.145 M 643.482 1205.020 C 642.667 1205.921, 642 1207.579, 642 1208.706 C 642 1213.511, 640.298 1213.409, 721 1213.409 C 802.324 1213.408, 800 1213.555, 800 1208.413 C 800 1203.454, 800.800 1203.504, 720.232 1203.441 C 651.739 1203.387, 644.831 1203.530, 643.482 1205.020 M 1436.250 1208.222 C 1433.585 1209.505, 1433.470 1210.631, 1435.573 1214.846 C 1437.082 1217.871, 1437.399 1218.001, 1443.323 1218.017 C 1516.982 1218.213, 1540.228 1217.915, 1541.382 1216.758 C 1543.678 1214.458, 1543.880 1211.249, 1541.865 1209.085 C 1539.983 1207.066, 1539.131 1207.034, 1489.226 1207.085 C 1454.954 1207.121, 1437.770 1207.490, 1436.250 1208.222 M 1476.913 1399.087 C 1474.709 1401.291, 1474.935 1405.701, 1477.329 1407.225 C 1477.973 1407.634, 1491.112 1407.976, 1506.527 1407.985 C 1530.293 1407.998, 1534.893 1407.763, 1536.777 1406.443 C 1539.473 1404.555, 1539.658 1400.905, 1537.171 1398.655 C 1535.561 1397.197, 1531.982 1397, 1507.171 1397 C 1479.943 1397, 1478.930 1397.070, 1476.913 1399.087 M 651.638 1506.847 C 649.717 1508.970, 649.490 1513.090, 651.200 1514.800 C 652.112 1515.712, 670.676 1516, 728.643 1516 L 804.887 1516 806.443 1513.777 C 808.563 1510.751, 808.402 1509.156, 805.750 1506.940 C 803.592 1505.136, 800.435 1505.059, 728.388 1505.048 C 657.161 1505.037, 653.192 1505.130, 651.638 1506.847 M 865.241 1506.986 C 863.666 1509.508, 863.646 1513.246, 865.200 1514.800 C 866.105 1515.705, 880.099 1516, 922.045 1516 C 974.683 1516, 977.779 1515.901, 979.345 1514.171 C 981.537 1511.749, 981.432 1509.841, 978.961 1507.189 L 976.922 1505 921.702 1505 C 867.690 1505, 866.454 1505.043, 865.241 1506.986 M 1464.250 1508.772 C 1450.889 1508.960, 1445 1509.385, 1445 1510.161 C 1445 1510.776, 1444.213 1511.866, 1443.250 1512.583 C 1441.646 1513.779, 1441.628 1514.121, 1443.038 1516.694 L 1444.576 1519.500 1496.038 1519.738 L 1547.500 1519.976 1549.228 1517.738 C 1551.393 1514.933, 1551.388 1514.062, 1549.193 1511.210 L 1547.430 1508.919 1515.465 1508.710 C 1497.884 1508.594, 1474.838 1508.622, 1464.250 1508.772 M 1080.282 1509.652 C 1079.612 1509.923, 1078.773 1511.693, 1078.418 1513.584 C 1077.114 1520.535, 1064.894 1520, 1224.923 1520 C 1338.001 1520, 1370.175 1519.729, 1372.230 1518.759 C 1375.501 1517.216, 1376.512 1513.297, 1373.857 1512.455 C 1372.836 1512.130, 1372 1511.221, 1372 1510.433 C 1372 1509.195, 1352.195 1509.011, 1226.750 1509.079 C 1146.862 1509.122, 1080.952 1509.380, 1080.282 1509.652 M 647.887 1587.113 C 645.466 1589.534, 645.487 1592.226, 647.945 1594.450 C 649.787 1596.117, 659.090 1596.205, 823.474 1596.109 C 981.651 1596.017, 997.277 1595.864, 999.529 1594.389 C 1002.462 1592.467, 1002.619 1590.322, 1000.052 1587.244 L 998.170 1584.989 823.972 1585.108 C 654.679 1585.223, 649.720 1585.280, 647.887 1587.113 M 1066.241 1586.986 C 1064.111 1590.396, 1064.694 1593.933, 1067.565 1595.025 C 1069.149 1595.627, 1097.748 1595.987, 1142.315 1595.967 C 1210.524 1595.935, 1214.620 1595.834, 1216.671 1594.121 C 1219.702 1591.589, 1219.847 1589.847, 1217.244 1587.244 L 1215 1585 1141.241 1585 C 1068.732 1585, 1067.460 1585.034, 1066.241 1586.986 M 1267.971 1587.049 C 1266.194 1589.525, 1266.556 1593.045, 1268.764 1594.750 C 1270.029 1595.727, 1288.307 1595.997, 1352.441 1595.986 C 1397.574 1595.979, 1435.513 1595.701, 1436.752 1595.369 C 1438.180 1594.986, 1439.319 1593.620, 1439.866 1591.633 C 1440.582 1589.029, 1440.371 1588.208, 1438.614 1586.772 C 1436.649 1585.166, 1430.611 1585.043, 1352.971 1585.022 C 1269.907 1585, 1269.433 1585.011, 1267.971 1587.049 M 1472.913 1587.087 C 1470.709 1589.291, 1470.935 1593.701, 1473.329 1595.225 C 1473.973 1595.634, 1487.112 1595.976, 1502.527 1595.985 C 1526.293 1595.998, 1530.893 1595.763, 1532.777 1594.443 C 1535.473 1592.555, 1535.658 1588.905, 1533.171 1586.655 C 1531.561 1585.197, 1527.982 1585, 1503.171 1585 C 1475.943 1585, 1474.930 1585.070, 1472.913 1587.087 M 647.638 1694.847 C 645.717 1696.970, 645.490 1701.090, 647.200 1702.800 C 648.112 1703.712, 666.676 1704, 724.643 1704 L 800.887 1704 802.443 1701.777 C 804.563 1698.751, 804.402 1697.156, 801.750 1694.940 C 799.592 1693.136, 796.435 1693.059, 724.388 1693.048 C 653.161 1693.037, 649.192 1693.130, 647.638 1694.847 M 861.241 1694.986 C 859.666 1697.508, 859.646 1701.246, 861.200 1702.800 C 862.105 1703.705, 876.099 1704, 918.045 1704 C 970.683 1704, 973.779 1703.901, 975.345 1702.171 C 977.537 1699.749, 977.432 1697.841, 974.961 1695.189 L 972.922 1693 917.702 1693 C 863.690 1693, 862.454 1693.043, 861.241 1694.986 M 1460.250 1696.772 C 1446.889 1696.960, 1441 1697.385, 1441 1698.161 C 1441 1698.776, 1440.213 1699.866, 1439.250 1700.583 C 1437.646 1701.779, 1437.628 1702.121, 1439.038 1704.694 L 1440.576 1707.500 1492.038 1707.738 L 1543.500 1707.976 1545.228 1705.738 C 1547.393 1702.933, 1547.388 1702.062, 1545.193 1699.210 L 1543.430 1696.919 1511.465 1696.710 C 1493.884 1696.594, 1470.838 1696.622, 1460.250 1696.772 M 1076.282 1697.652 C 1075.612 1697.923, 1074.773 1699.693, 1074.418 1701.584 C 1073.114 1708.535, 1060.894 1708, 1220.923 1708 C 1334.001 1708, 1366.175 1707.729, 1368.230 1706.759 C 1371.501 1705.216, 1372.512 1701.297, 1369.857 1700.455 C 1368.836 1700.130, 1368 1699.221, 1368 1698.433 C 1368 1697.195, 1348.195 1697.011, 1222.750 1697.079 C 1142.862 1697.122, 1076.952 1697.380, 1076.282 1697.652" stroke="none" fill="#ffffff" fill-rule="evenodd"/><path d="M 1094.250 1221.718 C 1093.326 1222.050, 1093 1226.034, 1093 1236.976 C 1093 1249.600, 1093.235 1251.876, 1094.593 1252.397 C 1095.657 1252.805, 1096.360 1252.339, 1096.712 1250.993 C 1097.427 1248.261, 1101.924 1247.176, 1103.516 1249.353 C 1104.781 1251.083, 1108 1251.631, 1108 1250.117 C 1108 1249.631, 1108.945 1248.986, 1110.101 1248.684 C 1113.320 1247.842, 1111.293 1245.691, 1107.917 1246.367 C 1106.356 1246.679, 1104.782 1246.456, 1104.421 1245.872 C 1104.059 1245.287, 1102.242 1244.986, 1100.382 1245.204 L 1097 1245.598 1097 1233.858 C 1097 1222.242, 1096.684 1220.845, 1094.250 1221.718" stroke="none" fill="#fee761" fill-rule="evenodd"/><path d="M 1093.560 1170.050 C 1091.942 1170.534, 1090.233 1171.620, 1089.760 1172.464 C 1089.287 1173.309, 1088.401 1174, 1087.790 1174 C 1086.325 1174, 1073.040 1187.169, 1073.017 1188.643 C 1073.008 1189.272, 1072.328 1190.044, 1071.506 1190.359 C 1070.684 1190.675, 1069.111 1192.410, 1068.009 1194.216 C 1066.118 1197.319, 1066.007 1199.253, 1066.004 1229.224 L 1066 1260.949 1069.031 1262.516 C 1071.625 1263.858, 1076.366 1264.042, 1101.879 1263.792 C 1125.349 1263.562, 1132.048 1263.208, 1133.348 1262.128 C 1134.822 1260.903, 1135 1257.264, 1135 1228.418 L 1135 1196.081 1132.250 1192.999 C 1127.937 1188.166, 1116.566 1176.759, 1113.297 1173.986 C 1107.559 1169.120, 1101.030 1167.818, 1093.560 1170.050 M 1095 1176.315 C 1091.662 1177.373, 1074 1193.910, 1074 1195.976 C 1074 1196.461, 1073.293 1197.564, 1072.429 1198.429 C 1071 1199.857, 1073.497 1200, 1099.897 1200 C 1127.130 1200, 1128.898 1199.891, 1128.302 1198.250 C 1126.913 1194.422, 1111.871 1179.485, 1106.799 1176.897 C 1102.671 1174.792, 1100.187 1174.669, 1095 1176.315 M 1094.250 1221.718 C 1093.326 1222.050, 1093 1226.034, 1093 1236.976 C 1093 1249.600, 1093.235 1251.876, 1094.593 1252.397 C 1095.657 1252.805, 1096.360 1252.339, 1096.712 1250.993 C 1097.427 1248.261, 1101.924 1247.176, 1103.516 1249.353 C 1104.781 1251.083, 1108 1251.631, 1108 1250.117 C 1108 1249.631, 1108.945 1248.986, 1110.101 1248.684 C 1113.320 1247.842, 1111.293 1245.691, 1107.917 1246.367 C 1106.356 1246.679, 1104.782 1246.456, 1104.421 1245.872 C 1104.059 1245.287, 1102.242 1244.986, 1100.382 1245.204 L 1097 1245.598 1097 1233.858 C 1097 1222.242, 1096.684 1220.845, 1094.250 1221.718" stroke="none" fill="#f77622" fill-rule="evenodd"/><path d="M 1072.500 948.168 C 1044.231 950.992, 1002.237 966.387, 980.659 981.837 C 976.171 985.050, 969.575 989.620, 966 991.994 C 957.876 997.387, 949 1004.813, 949 1006.216 C 949 1007.392, 941.112 1016.631, 930.750 1027.592 C 927.038 1031.519, 924 1035.173, 924 1035.711 C 924 1036.250, 923.100 1037.505, 922 1038.500 C 920.900 1039.495, 920 1040.684, 920 1041.141 C 920 1041.598, 917.413 1045.565, 914.250 1049.957 C 906.955 1060.088, 898.886 1074.659, 890.684 1092.517 C 887.143 1100.227, 880.874 1113.277, 876.753 1121.517 C 872.632 1129.758, 867.606 1140.360, 865.585 1145.077 L 861.911 1153.655 862.211 1276.077 C 862.490 1390.075, 862.630 1398.756, 864.255 1402.218 C 865.215 1404.263, 866.016 1407.638, 866.035 1409.718 C 866.055 1411.798, 866.617 1414.448, 867.285 1415.607 C 870.573 1421.309, 893.403 1436.325, 903.770 1439.604 C 913.320 1442.625, 931.779 1447.230, 942 1449.143 C 947.775 1450.224, 956.550 1452.017, 961.500 1453.128 C 983.057 1457.968, 985.439 1458.192, 1051 1461.556 C 1082.292 1463.161, 1121.027 1462.597, 1154.500 1460.049 C 1161.650 1459.505, 1174.925 1458.599, 1184 1458.037 C 1193.075 1457.474, 1202.300 1456.593, 1204.500 1456.078 C 1206.700 1455.563, 1213.675 1454.199, 1220 1453.046 C 1226.325 1451.893, 1236.450 1450.008, 1242.500 1448.856 C 1248.550 1447.703, 1257.775 1445.948, 1263 1444.954 C 1275.308 1442.613, 1280.284 1441.335, 1285.910 1439.070 C 1288.434 1438.053, 1294.325 1436.010, 1299 1434.529 C 1303.675 1433.048, 1309.375 1430.861, 1311.667 1429.668 C 1319.712 1425.483, 1327.540 1420.652, 1331.750 1417.275 L 1336 1413.866 1336 1275.408 L 1336 1136.950 1332.589 1130.225 C 1330.712 1126.526, 1326.593 1119.450, 1323.435 1114.500 C 1320.277 1109.550, 1316.040 1102.575, 1314.019 1099 C 1301.191 1076.303, 1295.477 1068.709, 1268.125 1038.005 C 1245.622 1012.744, 1243.767 1010.443, 1244.186 1008.297 C 1245.044 1003.891, 1216.060 984.102, 1188.950 970.584 C 1161.386 956.840, 1137.747 949.829, 1113 948.058 C 1096.322 946.864, 1085.256 946.894, 1072.500 948.168 M 1080 998.096 C 1068.609 999.276, 1059.028 1001.443, 1044.852 1006.048 C 1029.207 1011.130, 1017.770 1016.596, 1007.737 1023.784 C 1003.207 1027.031, 996.125 1031.950, 992 1034.716 C 977.109 1044.703, 959.377 1061.448, 944.576 1079.500 C 935.455 1090.625, 921 1109.602, 921 1110.452 C 921 1110.753, 1000.459 1111, 1097.576 1111 L 1274.152 1111 1265.902 1100.250 C 1248.878 1078.066, 1233.916 1062.104, 1216.876 1047.944 C 1197.304 1031.681, 1174.268 1017.387, 1155 1009.552 C 1131.651 1000.057, 1103.133 995.701, 1080 998.096 M 1093.560 1170.050 C 1091.942 1170.534, 1090.233 1171.620, 1089.760 1172.464 C 1089.287 1173.309, 1088.401 1174, 1087.790 1174 C 1086.325 1174, 1073.040 1187.169, 1073.017 1188.643 C 1073.008 1189.272, 1072.328 1190.044, 1071.506 1190.359 C 1070.684 1190.675, 1069.111 1192.410, 1068.009 1194.216 C 1066.118 1197.319, 1066.007 1199.253, 1066.004 1229.224 L 1066 1260.949 1069.031 1262.516 C 1071.625 1263.858, 1076.366 1264.042, 1101.879 1263.792 C 1125.349 1263.562, 1132.048 1263.208, 1133.348 1262.128 C 1134.822 1260.903, 1135 1257.264, 1135 1228.418 L 1135 1196.081 1132.250 1192.999 C 1127.937 1188.166, 1116.566 1176.759, 1113.297 1173.986 C 1107.559 1169.120, 1101.030 1167.818, 1093.560 1170.050 M 1095 1176.315 C 1091.662 1177.373, 1074 1193.910, 1074 1195.976 C 1074 1196.461, 1073.293 1197.564, 1072.429 1198.429 C 1071 1199.857, 1073.497 1200, 1099.897 1200 C 1127.130 1200, 1128.898 1199.891, 1128.302 1198.250 C 1126.913 1194.422, 1111.871 1179.485, 1106.799 1176.897 C 1102.671 1174.792, 1100.187 1174.669, 1095 1176.315 M 1015 1267.921 C 1015 1268.427, 1013.603 1269.148, 1011.896 1269.523 C 1006.723 1270.659, 1000 1274.009, 1000 1275.450 C 1000 1276.196, 998.422 1278.087, 996.494 1279.653 C 991.648 1283.587, 988.571 1292.407, 989.361 1300.093 C 990.071 1306.997, 993.066 1314.201, 996.448 1317.142 C 997.852 1318.362, 999 1319.922, 999 1320.608 C 999 1321.294, 1000.082 1322.706, 1001.405 1323.746 C 1002.727 1324.786, 1004.657 1327.032, 1005.694 1328.737 C 1007.677 1331.998, 1012.954 1338.661, 1016.750 1342.698 C 1017.987 1344.014, 1019 1345.408, 1019 1345.796 C 1019 1346.184, 1020.800 1348.470, 1023 1350.877 C 1025.200 1353.284, 1027 1355.469, 1027 1355.732 C 1027 1356.315, 1032.617 1363.550, 1035.740 1366.990 C 1036.983 1368.359, 1038 1369.784, 1038 1370.156 C 1038 1370.528, 1039.800 1372.763, 1042 1375.122 C 1044.200 1377.481, 1046.005 1379.881, 1046.011 1380.456 C 1046.017 1381.030, 1047.592 1383.026, 1049.511 1384.890 C 1051.430 1386.755, 1053.005 1388.780, 1053.011 1389.390 C 1053.017 1390.001, 1054.592 1392.026, 1056.511 1393.890 C 1058.430 1395.755, 1060 1397.829, 1060 1398.500 C 1060 1399.171, 1061.570 1401.245, 1063.489 1403.110 C 1065.408 1404.974, 1066.983 1406.963, 1066.989 1407.530 C 1067.008 1409.374, 1078.406 1420.781, 1082 1422.553 C 1083.925 1423.502, 1085.725 1424.566, 1086 1424.917 C 1087.202 1426.452, 1095.282 1429.296, 1098.202 1429.213 C 1101.205 1429.128, 1108.895 1426.328, 1110 1424.917 C 1110.275 1424.566, 1112.075 1423.500, 1114 1422.548 C 1117.539 1420.797, 1128.952 1409.345, 1128.997 1407.500 C 1129.010 1406.950, 1130.592 1404.974, 1132.511 1403.110 C 1134.430 1401.245, 1136 1399.171, 1136 1398.500 C 1136 1397.829, 1137.570 1395.755, 1139.489 1393.890 C 1141.408 1392.026, 1142.983 1390.001, 1142.989 1389.390 C 1142.995 1388.780, 1144.570 1386.755, 1146.489 1384.890 C 1148.408 1383.026, 1149.983 1381.007, 1149.989 1380.403 C 1149.995 1379.800, 1151.463 1377.775, 1153.250 1375.903 C 1155.037 1374.031, 1157.828 1370.545, 1159.451 1368.156 C 1161.074 1365.767, 1163.886 1362.192, 1165.701 1360.211 C 1167.515 1358.230, 1169 1356.304, 1169 1355.931 C 1169 1355.558, 1170.800 1353.284, 1173 1350.877 C 1175.200 1348.470, 1177 1346.184, 1177 1345.796 C 1177 1345.408, 1178.013 1344.014, 1179.250 1342.698 C 1183.046 1338.661, 1188.323 1331.998, 1190.306 1328.737 C 1191.343 1327.032, 1193.273 1324.786, 1194.595 1323.746 C 1195.918 1322.706, 1197 1321.298, 1197 1320.617 C 1197 1319.937, 1198.300 1318.050, 1199.888 1316.426 C 1209.083 1307.021, 1208.883 1287.474, 1199.514 1279.751 C 1197.581 1278.158, 1196 1276.233, 1196 1275.474 C 1196 1274.013, 1189.311 1270.667, 1184.104 1269.523 C 1182.397 1269.148, 1181 1268.427, 1181 1267.921 C 1181 1267.414, 1178.300 1267, 1175 1267 C 1171.700 1267, 1169 1267.378, 1169 1267.839 C 1169 1268.301, 1167.884 1269.188, 1166.519 1269.809 C 1162.464 1271.657, 1150 1283.478, 1150 1285.476 C 1150 1286.043, 1148.634 1287.796, 1146.965 1289.371 C 1145.295 1290.947, 1143.258 1293.533, 1142.439 1295.118 C 1141.619 1296.703, 1140.529 1298, 1140.016 1298 C 1139.504 1298, 1137.892 1300.035, 1136.434 1302.523 C 1134.976 1305.010, 1132.932 1307.501, 1131.892 1308.058 C 1130.851 1308.615, 1130 1309.661, 1130 1310.382 C 1130 1311.103, 1128.425 1313.315, 1126.500 1315.297 C 1124.575 1317.279, 1123 1319.319, 1123 1319.830 C 1123 1320.341, 1121.200 1322.614, 1119 1324.881 C 1116.800 1327.148, 1115 1329.364, 1115 1329.806 C 1115 1330.248, 1113.425 1332.329, 1111.500 1334.430 C 1109.575 1336.532, 1108 1338.467, 1108 1338.731 C 1108 1338.995, 1106.987 1340.462, 1105.750 1341.992 C 1104.513 1343.521, 1102.173 1346.412, 1100.551 1348.416 C 1097.842 1351.763, 1097.517 1351.909, 1096.551 1350.204 C 1095.973 1349.183, 1094.944 1347.707, 1094.265 1346.924 C 1091.389 1343.608, 1088 1339.176, 1088 1338.731 C 1088 1338.467, 1086.425 1336.532, 1084.500 1334.430 C 1082.575 1332.329, 1081 1330.248, 1081 1329.806 C 1081 1329.364, 1079.200 1327.148, 1077 1324.881 C 1074.800 1322.614, 1073 1320.420, 1073 1320.005 C 1073 1319.591, 1071.425 1317.532, 1069.500 1315.430 C 1067.575 1313.329, 1066 1311.038, 1066 1310.340 C 1066 1309.642, 1065.149 1308.615, 1064.108 1308.058 C 1063.068 1307.501, 1061.024 1305.010, 1059.566 1302.523 C 1058.108 1300.035, 1056.496 1298, 1055.984 1298 C 1055.471 1298, 1054.381 1296.703, 1053.561 1295.118 C 1052.742 1293.533, 1050.705 1290.947, 1049.035 1289.371 C 1047.366 1287.796, 1046 1286.043, 1046 1285.476 C 1046 1283.465, 1033.486 1271.698, 1029.250 1269.726 C 1028.013 1269.150, 1027 1268.301, 1027 1267.839 C 1027 1267.378, 1024.300 1267, 1021 1267 C 1017.700 1267, 1015 1267.414, 1015 1267.921" stroke="none" fill="#4e617f" fill-rule="evenodd"/><path d="" stroke="none" fill="#f9fafa" fill-rule="evenodd"/></svg>