<svg xmlns="http://www.w3.org/2000/svg" width="1028" height="1028" viewBox="0 0 1028 1028" version="1.1"><path d="M 494.250 402.718 C 492.169 403.465, 492.494 432.592, 494.593 433.397 C 495.657 433.805, 496.360 433.339, 496.712 431.993 C 497.427 429.261, 501.924 428.176, 503.516 430.353 C 504.781 432.083, 508 432.631, 508 431.117 C 508 430.631, 508.945 429.986, 510.101 429.684 C 513.320 428.842, 511.293 426.691, 507.917 427.367 C 506.356 427.679, 504.782 427.456, 504.421 426.872 C 504.059 426.287, 502.242 425.986, 500.382 426.204 C 497 426.598, 497 426.598, 497 414.858 C 497 403.242, 496.684 401.845, 494.250 402.718" stroke="none" fill="#fee761" fill-rule="evenodd"/><path d="M 493.560 351.050 C 491.942 351.534, 490.233 352.620, 489.760 353.464 C 489.287 354.309, 488.401 355, 487.790 355 C 486.325 355, 473.040 368.169, 473.017 369.643 C 473.008 370.272, 472.328 371.044, 471.506 371.359 C 464.825 373.923, 462.553 440.166, 469.031 443.516 C 473.202 445.673, 530.703 445.325, 533.348 443.128 C 536.709 440.335, 535.717 377.885, 532.250 373.999 C 512.573 351.947, 505.199 347.573, 493.560 351.050 M 495 357.315 C 491.662 358.373, 474 374.910, 474 376.976 C 474 377.461, 473.293 378.564, 472.429 379.429 C 471 380.857, 473.497 381, 499.897 381 C 532.392 381, 531.153 381.346, 524.584 374.097 C 509.564 357.524, 504.104 354.426, 495 357.315 M 494.250 402.718 C 492.169 403.465, 492.494 432.592, 494.593 433.397 C 495.657 433.805, 496.360 433.339, 496.712 431.993 C 497.427 429.261, 501.924 428.176, 503.516 430.353 C 504.781 432.083, 508 432.631, 508 431.117 C 508 430.631, 508.945 429.986, 510.101 429.684 C 513.320 428.842, 511.293 426.691, 507.917 427.367 C 506.356 427.679, 504.782 427.456, 504.421 426.872 C 504.059 426.287, 502.242 425.986, 500.382 426.204 C 497 426.598, 497 426.598, 497 414.858 C 497 403.242, 496.684 401.845, 494.250 402.718" stroke="none" fill="#f77622" fill-rule="evenodd"/><path d="M 415 448.921 C 415 449.427, 413.603 450.148, 411.896 450.523 C 406.121 451.791, 399.999 455.024, 400.015 456.797 C 400.025 457.907, 400.287 458.098, 400.766 457.345 C 402.995 453.842, 420.484 450.165, 424.656 452.322 C 427.930 454.015, 439 464.064, 439 465.344 C 439 465.789, 440.350 467.504, 442 469.154 C 443.650 470.804, 445 472.956, 445 473.936 C 445 474.917, 446.570 477.245, 448.489 479.110 C 450.408 480.974, 451.983 482.988, 451.989 483.583 C 451.995 484.179, 453.481 486.204, 455.292 488.083 C 457.102 489.962, 459.690 493.184, 461.042 495.243 C 462.394 497.302, 463.826 498.989, 464.224 498.993 C 464.623 498.997, 465.590 500.238, 466.374 501.750 C 467.157 503.262, 468.856 505.648, 470.149 507.052 C 471.442 508.456, 473.826 511.381, 475.447 513.552 C 477.068 515.723, 478.643 517.725, 478.947 518 C 479.988 518.941, 486 526.882, 486 527.316 C 486 527.554, 487.575 529.468, 489.500 531.570 C 491.425 533.671, 493.014 535.865, 493.031 536.445 C 493.118 539.347, 497.887 541.176, 500.469 539.297 C 501.826 538.309, 502.951 537.025, 502.969 536.445 C 502.986 535.865, 504.575 533.671, 506.500 531.570 C 508.425 529.468, 510 527.554, 510 527.316 C 510 526.828, 515.545 519.640, 518.316 516.535 C 519.315 515.416, 521.039 513.038, 522.148 511.250 C 523.256 509.462, 524.487 508, 524.882 508 C 525.278 508, 526.881 505.975, 528.446 503.500 C 530.010 501.025, 531.562 498.997, 531.895 498.993 C 532.228 498.989, 533.606 497.302, 534.958 495.243 C 536.310 493.184, 538.898 489.963, 540.708 488.083 C 542.519 486.204, 544.005 484.179, 544.011 483.583 C 544.017 482.988, 545.592 480.974, 547.511 479.110 C 549.430 477.245, 551 474.917, 551 473.936 C 551 472.956, 552.350 470.804, 554 469.154 C 555.650 467.504, 557 465.747, 557 465.250 C 557 463.914, 567.837 454.135, 571.307 452.341 C 575.513 450.166, 592.992 453.821, 595.234 457.345 C 595.713 458.098, 595.975 457.907, 595.985 456.797 C 596.001 455.024, 589.879 451.791, 584.104 450.523 C 582.397 450.148, 581 449.427, 581 448.921 C 581 448.414, 578.300 448, 575 448 C 571.700 448, 569 448.378, 569 448.839 C 569 449.301, 567.884 450.188, 566.519 450.809 C 562.464 452.657, 550 464.478, 550 466.476 C 550 467.043, 548.634 468.796, 546.965 470.371 C 545.295 471.947, 543.258 474.533, 542.439 476.118 C 541.619 477.703, 540.529 479, 540.016 479 C 539.504 479, 537.892 481.035, 536.434 483.523 C 534.976 486.010, 532.932 488.501, 531.892 489.058 C 530.851 489.615, 530 490.661, 530 491.382 C 530 492.103, 528.425 494.315, 526.500 496.297 C 524.575 498.279, 523 500.319, 523 500.830 C 523 501.341, 521.200 503.614, 519 505.881 C 516.800 508.148, 515 510.364, 515 510.806 C 515 511.248, 513.425 513.329, 511.500 515.430 C 509.575 517.532, 508 519.467, 508 519.731 C 508 519.995, 506.988 521.462, 505.750 522.992 C 504.512 524.521, 502.173 527.412, 500.551 529.416 C 497.842 532.763, 497.517 532.909, 496.551 531.204 C 495.973 530.183, 494.944 528.707, 494.265 527.924 C 491.389 524.608, 488 520.176, 488 519.731 C 488 519.467, 486.425 517.532, 484.500 515.430 C 482.575 513.329, 481 511.248, 481 510.806 C 481 510.364, 479.200 508.148, 477 505.881 C 474.800 503.614, 473 501.420, 473 501.005 C 473 500.591, 471.425 498.532, 469.500 496.430 C 467.575 494.329, 466 492.038, 466 491.340 C 466 490.642, 465.149 489.615, 464.108 489.058 C 463.068 488.501, 461.024 486.010, 459.566 483.523 C 458.108 481.035, 456.496 479, 455.984 479 C 455.471 479, 454.381 477.703, 453.561 476.118 C 452.742 474.533, 450.705 471.947, 449.035 470.371 C 447.366 468.796, 446 467.043, 446 466.476 C 446 464.465, 433.486 452.698, 429.250 450.726 C 428.012 450.150, 427 449.301, 427 448.839 C 427 448.378, 424.300 448, 421 448 C 417.700 448, 415 448.414, 415 448.921" stroke="none" fill="#2ce8f5" fill-rule="evenodd"/><path d="M 415.500 451.714 C 409.640 453.128, 401.713 456.258, 399.742 457.937 C 398.509 458.988, 396.484 460.670, 395.243 461.674 C 387.088 468.271, 387.827 490.646, 396.448 498.142 C 397.852 499.362, 399 500.922, 399 501.608 C 399 502.294, 400.082 503.706, 401.405 504.746 C 402.727 505.786, 404.657 508.032, 405.694 509.737 C 407.677 512.998, 412.954 519.661, 416.750 523.698 C 417.988 525.014, 419 526.408, 419 526.796 C 419 527.184, 420.800 529.470, 423 531.877 C 425.200 534.284, 427 536.469, 427 536.732 C 427 537.315, 432.617 544.550, 435.740 547.990 C 436.983 549.359, 438 550.784, 438 551.156 C 438 551.528, 439.800 553.763, 442 556.122 C 444.200 558.481, 446.008 560.881, 446.017 561.456 C 446.026 562.030, 447.826 564.267, 450.017 566.426 C 452.208 568.585, 454 570.962, 454 571.707 C 454 572.453, 454.674 573.321, 455.497 573.637 C 456.321 573.953, 458.421 576.414, 460.166 579.106 C 461.910 581.798, 463.699 584, 464.143 584 C 464.586 584, 465.637 585.332, 466.479 586.959 C 468.597 591.055, 477.830 600.405, 481.700 602.373 C 483.460 603.268, 485.260 604.575, 485.700 605.279 C 489.364 611.136, 506.636 611.136, 510.300 605.279 C 510.740 604.575, 512.540 603.267, 514.300 602.372 C 518.024 600.477, 527.548 590.774, 529.624 586.760 C 530.409 585.242, 531.414 584, 531.857 584 C 532.301 584, 534.090 581.798, 535.834 579.106 C 537.579 576.414, 539.679 573.953, 540.503 573.637 C 541.326 573.321, 542 572.453, 542 571.707 C 542 570.962, 543.792 568.585, 545.983 566.426 C 548.174 564.267, 549.974 562.007, 549.983 561.403 C 549.992 560.800, 551.462 558.775, 553.250 556.903 C 555.038 555.031, 557.828 551.545, 559.451 549.156 C 561.074 546.767, 563.886 543.192, 565.701 541.211 C 567.515 539.230, 569 537.304, 569 536.931 C 569 536.558, 570.800 534.284, 573 531.877 C 575.200 529.470, 577 527.184, 577 526.796 C 577 526.408, 578.013 525.014, 579.250 523.698 C 583.046 519.661, 588.323 512.998, 590.306 509.737 C 591.343 508.032, 593.273 505.786, 594.595 504.746 C 595.918 503.706, 597 502.298, 597 501.617 C 597 500.937, 598.300 499.050, 599.888 497.426 C 608.042 489.086, 608.915 467.888, 601.337 462.273 C 600.426 461.598, 598.417 459.920, 596.873 458.545 C 591.207 453.496, 576.143 449.840, 571.307 452.341 C 567.837 454.135, 557 463.914, 557 465.250 C 557 465.747, 555.650 467.504, 554 469.154 C 552.350 470.804, 551 472.956, 551 473.936 C 551 474.917, 549.430 477.245, 547.511 479.110 C 545.592 480.974, 544.017 482.988, 544.011 483.583 C 544.005 484.179, 542.519 486.204, 540.708 488.083 C 538.898 489.963, 536.310 493.184, 534.958 495.243 C 533.606 497.302, 532.228 498.989, 531.895 498.993 C 531.562 498.997, 530.010 501.025, 528.446 503.500 C 526.881 505.975, 525.278 508, 524.882 508 C 524.487 508, 523.256 509.462, 522.148 511.250 C 521.039 513.038, 519.315 515.416, 518.316 516.535 C 515.545 519.640, 510 526.828, 510 527.316 C 510 527.554, 508.425 529.468, 506.500 531.570 C 504.575 533.671, 502.986 535.865, 502.969 536.445 C 502.951 537.025, 501.826 538.309, 500.469 539.297 C 497.887 541.176, 493.118 539.347, 493.031 536.445 C 493.014 535.865, 491.425 533.671, 489.500 531.570 C 487.575 529.468, 486 527.554, 486 527.316 C 486 526.882, 479.988 518.941, 478.947 518 C 478.643 517.725, 477.068 515.723, 475.447 513.552 C 473.826 511.381, 471.442 508.456, 470.149 507.052 C 468.856 505.648, 467.157 503.262, 466.374 501.750 C 465.590 500.238, 464.623 498.997, 464.224 498.993 C 463.826 498.989, 462.394 497.302, 461.042 495.243 C 459.690 493.184, 457.102 489.962, 455.292 488.083 C 453.481 486.204, 451.995 484.179, 451.989 483.583 C 451.983 482.988, 450.408 480.974, 448.489 479.110 C 446.570 477.245, 445 474.917, 445 473.936 C 445 472.956, 443.650 470.804, 442 469.154 C 440.350 467.504, 439 465.800, 439 465.368 C 439 464.202, 429.266 455.133, 425.642 452.924 C 422.597 451.067, 419.645 450.715, 415.500 451.714" stroke="none" fill="#0095e9" fill-rule="evenodd"/><path d="" stroke="none" fill="#f37827" fill-rule="evenodd"/><path d="M 473.659 596.981 C 477.015 600.607, 485 605.929, 485 604.541 C 485 604.266, 483.207 603.126, 481.015 602.007 C 478.823 600.889, 476.284 598.837, 475.373 597.447 C 474.462 596.056, 472.839 594.449, 471.767 593.875 C 470.695 593.301, 471.546 594.699, 473.659 596.981 M 521.382 596.566 C 519.886 598.527, 516.938 601.011, 514.831 602.086 C 512.724 603.161, 511 604.268, 511 604.546 C 511 604.824, 512.462 604.322, 514.250 603.432 C 517.498 601.813, 526.531 593, 524.942 593 C 524.480 593, 522.878 594.605, 521.382 596.566" stroke="none" fill="#0494ec" fill-rule="evenodd"/></svg>